<?xml version="1.0" encoding="UTF-8" standalone="no"?>
<!-- Created with Inkscape (http://www.inkscape.org/) -->

<svg
   version="1.1"
   id="svg1"
   width="1552.2"
   height="1003.6226"
   viewBox="0 0 1552.2 1003.6226"
   xmlns="http://www.w3.org/2000/svg"
   xmlns:svg="http://www.w3.org/2000/svg">
  <defs
     id="defs1" />
  <g
     id="g1">
    <g
       id="g3">
      <path
         id="path2"
         d="M 0,3005.03 H 11641.5 V 10532.2 H 0 Z"
         style="fill:#adada7;fill-opacity:1;fill-rule:nonzero;stroke:none"
         transform="matrix(0.13333333,0,0,-0.13333333,0,1404.2933)" />
      <path
         id="path3"
         d="M 24.7852,3024.07 H 11612.385 v 7473.21 H 24.7852 Z"
         style="fill:#edece7;fill-opacity:1;fill-rule:nonzero;stroke:none"
         transform="matrix(0.13333333,0,0,-0.13333333,0,1404.2933)" />
      <path
         id="path4"
         d="M 11382.7,10183.6 H 317.395 V 3357.98 H 11382.7 v 6825.62 m -269.8,-269.73 V 3627.75 H 587.191 V 9913.87 H 11112.9"
         style="fill:#e12a19;fill-opacity:1;fill-rule:nonzero;stroke:none"
         transform="matrix(0.13333333,0,0,-0.13333333,0,1404.2933)" />
      <path
         id="path5"
         d="M 3287.01,4909.25 H 8413.07 V 7957.88 H 3287.01 V 4909.25 m 5395.82,-269.8 H 3017.22 V 8227.67 H 8682.83 V 4639.45"
         style="fill:#e12a19;fill-opacity:1;fill-rule:nonzero;stroke:none"
         transform="matrix(0.13333333,0,0,-0.13333333,0,1404.2933)" />
      <path
         id="path6"
         d="m 3896.12,6064.51 c -215.01,68.12 -417.93,146.61 -609.11,233.63 v 1659.74 h 863.71 l -26.79,-39.22 -30.09,-46.68 -28.84,-47.44 -27.58,-48.22 -26.29,-48.92 -24.96,-49.61 -0.22,-0.79 v -0.09 l -1.79,-22.48 c -1.03,-7.43 -1.66,-14.94 -3.02,-22.33 -1.29,-7.38 -2.53,-14.8 -4.4,-22.03 -1.52,-7.34 -3.91,-14.43 -6.1,-21.56 -2.51,-7.05 -5.27,-13.97 -8.54,-20.65 -1.32,-2.62 -2.7,-5.2 -4.16,-7.74 -0.03,-0.06 -0.07,-0.11 -0.1,-0.17 -3.3,-5.37 -6.51,-10.12 -9.59,-14.31 -8.35,-10.56 -18.69,-19.23 -30.52,-26.02 l -1.04,-1.25 c -6.92,-18.94 -14.42,-37.69 -20.92,-56.77 -6.71,-19.03 -13.28,-38.11 -19.33,-57.37 -12.5,-38.38 -23.49,-77.23 -33.71,-116.27 -4.81,-19.59 -9.98,-39.1 -14.19,-58.85 -4.57,-19.64 -8.71,-39.39 -12.58,-59.19 -4.16,-19.75 -7.23,-39.69 -10.88,-59.54 -3.13,-19.94 -6.37,-39.88 -9.04,-59.88 -5.36,-40 -9.95,-80.12 -12.94,-120.37 -1.87,-20.1 -2.6,-40.27 -3.94,-60.41 -0.88,-20.18 -1.68,-40.39 -2.14,-60.55 -0.12,-15.09 -0.51,-30.22 -0.51,-45.36 -0.01,-5.05 0.03,-10.1 0.14,-15.15 0.1,-20.17 0.4,-40.35 1.28,-60.52 0.46,-20.2 1.8,-40.33 2.93,-60.49 1.1,-20.16 3.12,-40.23 4.63,-60.37 0.06,-0.96 0.55,-1.91 1.34,-2.56 l 0.1,-0.1 c 4.76,-3.75 8.68,-9.37 11.65,-15.23 2.97,-5.88 5.14,-12.27 6.27,-18.75 0.53,-2.93 0.81,-5.9 0.8,-8.84 -0.02,-10.04 -3.29,-19.77 -10.59,-26.34 -0.78,-0.7 -1.28,-1.73 -1.28,-2.82 0.01,-0.18 0.02,-0.36 0.05,-0.54 l 9.89,-67.67 12.12,-67.33 14.32,-66.89 16.48,-66.41 c 5.96,-21.99 12.49,-43.87 18.7,-65.8 6.61,-21.82 13.91,-43.44 20.8,-65.14 3.23,-9.49 6.59,-18.93 9.98,-28.35 m 3951.85,30.72 c 7.82,23.2 15.24,46.53 22.25,70 19.33,64.94 35.41,130.8 48.36,197.3 12.89,66.47 22.52,133.6 28.91,201.02 3.19,33.69 5.42,67.5 7.14,101.31 l 1.79,50.78 0.51,50.74 -1.34,78.96 -4.27,78.89 -7.22,78.63 -10.14,78.32 -0.39,0.71 c -9.37,9.1 -15.17,21.5 -16.65,34.45 -0.36,2.95 -0.52,5.91 -0.52,8.87 0.02,10.11 2.01,20.21 4.93,29.92 l 0.06,0.62 -9.25,46.65 -10.33,46.4 -11.43,46.17 -12.44,45.88 c -8.68,30.49 -17.99,60.78 -28.01,90.88 -10.09,30.08 -20.8,59.92 -32.16,89.51 -22.77,59.16 -48.3,117.31 -76.43,174.13 -28.14,56.85 -58.83,112.42 -92.02,166.5 -16.64,26.99 -33.87,53.63 -51.61,79.92 -3.65,5.38 -7.33,10.75 -11.04,16.09 h 826.4 V 6341.8 c -178.63,-91.39 -366.87,-174.21 -565.1,-246.57 M 3017.22,6430.47 C 1675.08,7137.81 958.051,8276.14 587.191,9136.39 v 777.48 H 11112.9 V 9332.76 C 10725.3,8479.46 9980.86,7258.08 8682.83,6490.43 V 8227.67 H 7364.76 c -2.65,2.73 -5.31,5.46 -7.97,8.18 l -33.76,33.6 -34.46,32.77 -35.28,32.01 -35.92,31.19 -36.62,30.39 -37.33,29.57 c -0.68,0.54 -1.54,0.86 -2.49,0.86 -0.13,0 -0.25,-0.01 -0.38,-0.02 h -0.12 c -2.83,-0.23 -5.67,-0.36 -8.51,-0.36 -5.11,0 -10.23,0.4 -15.23,1.24 -7.78,1.31 -15.38,3.69 -22.08,7.52 -3.32,1.84 -6.31,4.2 -8.99,6.82 -2.68,2.58 -4.72,5.68 -6.45,8.9 -1.53,3.32 -2.55,6.84 -3,10.53 -0.18,1.45 -0.25,2.91 -0.25,4.37 -0.01,2.29 0.17,4.59 0.45,6.9 l 0.06,0.24 c 0.01,0.12 0.01,0.23 0.01,0.35 0.01,1.41 -0.63,2.78 -1.86,3.63 l -43.77,29.86 -21.95,14.91 -22.4,14.12 -44.98,28.14 -45.88,26.52 c -15.18,9.03 -30.75,17.35 -46.44,25.53 l -46.96,24.63 c -31.97,15.04 -63.43,31.35 -96.1,44.87 -16.2,6.99 -32.34,14.27 -48.68,20.99 l -49.38,19.28 c -16.4,6.66 -33.12,12.42 -49.84,18.14 -16.71,5.72 -33.36,11.76 -50.15,17.17 -33.94,9.88 -67.5,21.15 -101.96,29.4 l -51.35,13.16 -51.81,11.29 -25.91,5.58 -26.09,4.63 -52.2,9.24 -52.57,7.21 c -17.49,2.56 -34.97,4.84 -52.64,6.27 l -52.77,5.15 c -17.61,1.47 -35.28,2.15 -52.96,3.26 -35.34,2.68 -70.56,2.6 -105.85,3.39 -5.23,0.04 -10.45,0.06 -15.67,0.06 -65.54,0 -130.91,-3.27 -196.11,-9.44 -35.17,-3.34 -70.26,-7.66 -105.23,-12.66 l -52.35,-8.34 -52.13,-9.63 -1.44,-0.58 c -23.06,-14.92 -46.11,-29.73 -71.25,-39.71 -12.47,-4.88 -25.53,-8.61 -38.55,-8.9 -0.47,-0.01 -0.94,-0.02 -1.41,-0.02 -6.03,0 -11.97,0.83 -17.48,2.75 -3.01,1.01 -5.82,2.42 -8.53,4.02 -2.65,1.68 -5.12,3.66 -7.44,5.82 l -0.09,0.12 c -0.74,0.64 -1.68,1.02 -2.66,1.02 -0.35,0 -0.71,-0.05 -1.07,-0.16 l -53.37,-15.58 -52.91,-17.02 -52.45,-18.4 -51.93,-19.8 -51.35,-21.21 -50.8,-22.54 -50.18,-23.91 -49.51,-25.21 -48.83,-26.54 -48.09,-27.84 -47.32,-29.08 -46.55,-30.35 -45.74,-31.54 -44.86,-32.78 -43.99,-33.92 -43.08,-35.08 -42.14,-36.21 -41.14,-37.29 -40.13,-38.39 -32.87,-33.09 H 3017.22 V 6430.47 M 317.395,9892.77 c -72.321,255.33 -97.012,412.33 -97.012,412.33 H 11470.6 c 0,0 -26.6,-108 -87.9,-290.7 v 169.2 H 317.395 v -290.83"
         style="fill:#f1f0ec;fill-opacity:1;fill-rule:nonzero;stroke:none"
         transform="matrix(0.13333333,0,0,-0.13333333,0,1404.2933)" />
      <path
         id="path7"
         d="m 587.191,9136.39 c -126.832,294.2 -212.937,555.6 -269.796,756.38 v 290.83 H 11382.7 v -169.2 c -57.4,-170.88 -145.2,-407.27 -269.8,-681.64 v 581.11 H 587.191 v -777.48"
         style="fill:#e75547;fill-opacity:1;fill-rule:nonzero;stroke:none"
         transform="matrix(0.13333333,0,0,-0.13333333,0,1404.2933)" />
      <path
         id="path9"
         d="M 5092.91,3794.11 H 6489.04 V 5190.29 H 5092.91 Z"
         style="fill:#95120f;fill-opacity:1;fill-rule:nonzero;stroke:none"
         transform="matrix(0.13333333,0,0,-0.13333333,0,1404.2933)" />
      <path
         id="path10"
         d="M 5083.91,3830.09 H 6480.08 V 5226.26 H 5083.91 Z"
         style="fill:#a81314;fill-opacity:1;fill-rule:nonzero;stroke:none"
         transform="matrix(0.13333333,0,0,-0.13333333,0,1404.2933)" />
      <path
         id="path11"
         d="m 5856.2,4956.48 c 0,-41 -33.24,-74.18 -74.21,-74.18 -40.96,0 -74.2,33.18 -74.2,74.18 0,40.96 33.24,74.16 74.2,74.16 40.97,0 74.21,-33.2 74.21,-74.16"
         style="fill:#410500;fill-opacity:1;fill-rule:nonzero;stroke:none"
         transform="matrix(0.13333333,0,0,-0.13333333,0,1404.2933)" />
      <path
         id="path12"
         d="m 5856.2,4032.41 c 0,-40.95 -33.24,-74.16 -74.21,-74.16 -40.95,0 -74.2,33.21 -74.2,74.16 0,41 33.25,74.22 74.2,74.22 40.97,0 74.21,-33.22 74.21,-74.22"
         style="fill:#410500;fill-opacity:1;fill-rule:nonzero;stroke:none"
         transform="matrix(0.13333333,0,0,-0.13333333,0,1404.2933)" />
      <path
         id="path8"
         d="m 3287.01,6298.14 c -92.52,42.11 -182.62,86.39 -269.79,132.33 v 1797.2 h 1356.07 l -6.27,-6.31 -38.07,-40.45 -37,-41.43 -35.89,-42.36 -34.74,-43.34 -33.61,-44.22 -32.46,-45.04 -4.53,-6.64 H 3287.01 V 6298.14 m 5126.06,43.66 v 1616.08 h -826.4 c -14.35,20.71 -29.08,41.19 -44.09,61.43 -19.08,25.39 -38.6,50.37 -58.63,74.96 -20.16,24.49 -40.83,48.55 -61.96,72.23 -18.75,20.74 -37.8,41.12 -57.23,61.17 H 8682.83 V 6490.43 c -87.47,-51.73 -177.2,-101.27 -269.76,-148.63"
         style="fill:#e75547;fill-opacity:1;fill-rule:nonzero;stroke:none"
         transform="matrix(0.13333333,0,0,-0.13333333,0,1404.2933)" />
    </g>
  </g>
</svg>
