<?xml version="1.0" encoding="UTF-8" standalone="no"?>
<!-- Created with Inkscape (http://www.inkscape.org/) -->

<svg
   version="1.1"
   id="svg1"
   width="785.98932"
   height="137.09732"
   viewBox="0 0 785.98934 137.09732"
   xmlns="http://www.w3.org/2000/svg"
   xmlns:svg="http://www.w3.org/2000/svg">
  <defs
     id="defs1" />
  <g
     id="g1"
     transform="translate(-1892.2916,141.21578)">
    <g
       id="g4"
       style="display:inline">
      <g
         id="g3"
         transform="translate(1505.5809,-837.77711)"
         style="display:inline">
        <path
           id="path13"
           d="m 5847.74,4495.54 c -1385.7,0 -2509.01,128.87 -2509.01,287.79 0,158.95 1123.31,287.8 2509.01,287.8 1385.72,0 2509.09,-128.85 2509.09,-287.8 0,-158.92 -1123.37,-287.79 -2509.09,-287.79 m 0.03,791.43 c -1627.84,0 -2947.44,-225.51 -2947.44,-503.64 0,-278.12 1319.6,-503.57 2947.44,-503.57 1627.88,0 2947.48,225.45 2947.48,503.57 0,278.13 -1319.6,503.64 -2947.48,503.64"
           style="display:inline;fill:#2c2d2b;fill-opacity:1;fill-rule:nonzero;stroke:none"
           transform="matrix(0.13333333,0,0,-0.13333333,0,1404.2933)" />
        <path
           id="path14"
           d="m 3354.49,4749.07 1.56,0.45 c -11.32,11.1 -17.32,22.39 -17.32,33.81 0,158.95 1123.31,287.8 2509.01,287.8 1385.72,0 2509.09,-128.85 2509.09,-287.8 178.8,191.1 -1123.12,436.17 -2519.23,415.94 -1396.17,-20.21 -2286.5,-182.09 -2482.09,-263.07 -195.59,-80.93 -1.02,-187.13 -1.02,-187.13"
           style="display:inline;fill:#1d1d1b;fill-opacity:1;fill-rule:nonzero;stroke:none"
           transform="matrix(0.13333333,0,0,-0.13333333,0,1404.2933)" />
        <path
           id="path15"
           d="m 8591.91,4967.53 c 28.97,-41.42 52.33,-89.67 64.95,-145.97 60.72,-269.81 -2016.66,-492.35 -3205.66,-456.04 -688.42,21.06 -1329.24,89.22 -1778.55,175.61 -1.44,-0.41 -2.88,-0.71 -4.62,-0.57 -68.85,5.08 -138.75,24.57 -205.42,41.29 -109.59,27.5 -218.34,59.78 -322.6,103.61 -80.17,33.71 -188.73,94.81 -211.01,168.03 -18.75,-22.93 -28.67,-46.35 -28.67,-70.16 0,-278.12 1319.6,-503.57 2947.44,-503.57 1627.88,0 2947.48,225.45 2947.48,503.57 0,64.98 -72.15,127.13 -203.34,184.2"
           style="display:inline;fill:#1d1d1b;fill-opacity:1;fill-rule:nonzero;stroke:none"
           transform="matrix(0.13333333,0,0,-0.13333333,0,1404.2933)" />
        <path
           id="path16"
           d="m 3141.92,4706.89 c 0,0 -319.24,148.41 80.94,278.81 400.19,130.37 1272.51,301.27 3165.54,269.78 0,0 -1555.78,4.49 -2518.05,-166.37 0,0 -562.06,-62.94 -642.99,-193.35 0,0 -80.93,-76.43 49.45,-148.38 130.42,-71.94 211.32,-188.85 1704.19,-269.79 0,0 1461.34,-22.5 2189.8,40.45 0,0 -822.89,-116.9 -2248.25,-94.39 -894.99,14.12 -1524.33,166.32 -1780.63,283.24"
           style="display:inline;fill:#505150;fill-opacity:1;fill-rule:nonzero;stroke:none"
           transform="matrix(0.13333333,0,0,-0.13333333,0,1404.2933)" />
      </g>
      <path
         id="path17"
         d="m 2364.5849,-136.81179 c 0.9093,-0.36134 0.3573,-1.71067 -0.256,-2.06934 -12.5014,-7.34933 -20.2427,3.98134 -23.568,15.54667 -2.216,6.36 -3.3387,13.5 -4.492,19.06533 -0.8427,4.03867 -2.084,7.953337 -3.5694,11.79867 -2.072,4.761333 -4.236,9.469333 -6.6493,14.062666 -1.7093,3.102667 -3.516,6.166667 -5.388,9.214667 -7.8573,12.061333 -18.3253,23.134666 -24.3147,35.983999 l -0.033,0.293333 c 3.212,-0.012 6.4147,-0.028 9.6,-0.05467 4.64,-3.905333 8.9707,-8.191999 12.9613,-12.743999 5.56,-6.338667 9.348,-13.713333 14.612,-20.229333 4.6814,-5.812 11.1387,-10.677333 17.2654,-3.234667 3.62,4.404 5.7493,12.341333 7.8586,17.612 2.2814,5.698666 4.1694,11.573333 5.3387,17.603999 2.596,-0.072 5.1813,-0.148 7.7507,-0.224 -2.0667,-15.629333 -7.656,-30.967999 -14.232,-45.215999 -6.836,-14.825332 -13.4214,-49.265326 7.116,-57.409326"
         style="display:inline;fill:#b2b3b3;fill-opacity:1;fill-rule:nonzero;stroke:none;stroke-width:0.133333" />
      <path
         id="path18"
         d="m 1988.8156,-99.52646 c -1.4294,-2.948 -3.3827,-5.74267 -6.3987,-8.27467 -11.828,-9.932 -45.5093,-12.78133 -48.6187,5.36 -0.7746,4.51067 1.7494,-2.63866 20.124,-3.25066 28.4347,-0.94267 31.268,24.002663 28.4227,42.917329 -0.3787,2.5 -1.268,4.885333 -2.0373,7.306667 2.552,0.646666 5.2746,1.278666 8.1293,1.909333 1.8627,-4.412 4.58,-7.708 10.1173,-5.341333 4.5187,1.922666 7.7774,5.439999 10.792,9.335999 4.3187,0.718667 8.836,1.425334 13.5654,2.104 -8.516,-10.827999 -17.2054,-21.398666 -24.7,-33.265332 -3.144,-4.976 -5.496,-12.858666 -9.396,-18.801333"
         style="fill:#b2b3b3;fill-opacity:1;fill-rule:nonzero;stroke:none;stroke-width:0.133333" />
      <path
         id="path19"
         d="m 2102.0809,-116.91313 c -5.3173,-8.03866 -18.296,-17.288 -30.1493,-18.61333 -7.1387,0.55467 -13.4547,2.88267 -15.5267,9.27733 9.1493,1.96134 18.452,0.136 26.6453,6.07867 11.7654,8.536 12.14,33.718666 5.6534,45.710666 -5.4627,10.097333 -8.844,23.151999 -10.6387,33.318666 3.1133,0.282667 6.2733,0.561333 9.4773,0.830667 2.848,-11.18 7.8467,-21.882667 11.5054,-32.873333 10.064,-11.281333 19.7453,8.597333 24.4626,15.474666 5.112,7.456 10.8294,14.809333 17.4947,21.072 4.0573,0.224 8.1667,0.433333 12.316,0.641333 -8.5893,-13.445333 -20.516,-25.023999 -29.2733,-38.395999 -8.76,-13.374666 -13.2427,-29.333336 -21.9667,-42.521336"
         style="fill:#b2b3b3;fill-opacity:1;fill-rule:nonzero;stroke:none;stroke-width:0.133333" />
      <path
         id="path20"
         d="m 2231.9782,-77.511794 c -2.412,-4.588 -4.5773,-9.302666 -6.6493,-14.057333 -1.484,-3.841333 -2.7294,-7.757333 -3.568,-11.798663 -1.156,-5.56267 -2.276,-12.70667 -4.492,-19.06534 -3.3254,-11.56533 -11.068,-22.896 -23.5694,-15.54933 -0.612,0.36133 -1.1653,1.71333 -0.256,2.07467 20.5374,8.14133 13.952,42.578663 7.116,57.406663 -6.3933,13.849333 -11.8706,28.731999 -14.0693,43.906665 2.5933,0.09333 5.2107,0.181334 7.8307,0.268 2.5213,-11.877333 7.8266,-22.877332 12.9266,-33.890665 l 0.029,-0.05733 c 3.4573,-4.202666 9.4773,-4.706666 14.0026,-0.997333 0.4174,0.341333 0.8174,0.724 1.2294,1.085333 7.6693,13 17.088,25.253333 28.4106,35.091999 3.4534,0.044 6.924,0.072 10.4094,0.104 -6.0374,-12.557333 -16.2454,-23.461332 -23.9614,-35.302665 -1.872,-3.044 -3.68,-6.117334 -5.3893,-9.218667"
         style="fill:#b2b3b3;fill-opacity:1;fill-rule:nonzero;stroke:none;stroke-width:0.133333" />
      <path
         id="path21"
         d="m 2625.4822,-110.04513 c -1.4093,-2.136 -3.9427,-3.33066 -6.164,-4.44266 -3.9827,-1.98934 -8.576,-3.26134 -12.948,-4.07867 -10.0947,-1.90133 -20.4387,0.516 -28.364,7.16667 -3.0107,2.532 -4.9667,5.32533 -6.3933,8.27866 -3.8987,5.937337 -6.252,13.82267 -9.3987,18.800003 -8.7693,13.88 -19.16,25.999999 -28.9973,38.819999 4.6533,-0.590667 9.14,-1.194667 13.4746,-1.817333 4.4707,-5.964 8.448,-12.313333 15.1774,-15.185333 7.66,-3.262667 9.9573,4.250666 12.008,10.655999 2.548,-0.497333 5.0026,-1.005333 7.3533,-1.514666 0.06,-0.404 0.095,-0.732 0.077,-0.846667 -0.5106,-4.193333 -2.6026,-8.018666 -3.224,-12.164 -3.2293,-21.447999 0.6334,-39.669332 23.8974,-42.060002 4.376,-0.448 8.8213,-0.54933 13.1426,0.396 3.9694,0.86667 16.376,7.19467 10.3587,-2.008"
         style="fill:#b2b3b3;fill-opacity:1;fill-rule:nonzero;stroke:none;stroke-width:0.133333" />
      <path
         id="path22"
         d="m 2468.3049,-87.19046 c -4.0307,-18.24533 2.216,-39.944 23.88,-40.568 0.9,-0.0253 2.1986,0.104 3.6586,0.23333 4.072,0.36134 9.388,0.72267 10.732,-2.268 0.097,-0.216 -0.085,-0.44 -0.268,-0.53866 -5.5853,-2.91867 -10.064,-7.71067 -17.64,-7.112 -13.9693,1.10666 -23.1986,6.46133 -30.92,18.13333 -8.7186,13.18667 -13.2106,29.145333 -21.9653,42.519999 -9.4,14.341333 -22.4507,26.630666 -31.0947,41.377333 3.548,-0.156 7.0707,-0.314667 10.5574,-0.484 11.8306,-9.893333 21.9493,-24.5 30.4306,-39.098666 11.1587,-8.882666 16.364,0.544 19.4387,10.549333 2.584,8.354667 6.1213,16.349333 7.9547,24.937333 3.1146,-0.237334 6.1853,-0.489334 9.2173,-0.744 -1.1307,-7.584 -2.824,-15.125333 -5.2187,-22.393333 -2.7173,-8.250666 -6.8773,-16.024 -8.7626,-24.543999"
         style="fill:#b2b3b3;fill-opacity:1;fill-rule:nonzero;stroke:none;stroke-width:0.133333" />
      <path
         id="path49"
         d="m 1940.4716,-106.93313 c 0,0 22.4853,-8.09866 36.8706,8.541337 0,0 -9.8893,-21.134667 -36.8706,-8.541337"
         style="fill:#ffffff;fill-opacity:1;fill-rule:nonzero;stroke:none;stroke-width:0.133333" />
      <path
         id="path50"
         d="m 2062.7756,-128.96779 c 0,0 1.1706,-0.296 3.2693,-0.44267 2.088,-0.096 5.1413,-0.184 8.744,0.55467 3.5813,0.70666 7.7667,2.21866 11.548,5.06 1.8733,1.428 3.6627,3.11466 5.168,5.09733 1.4693,1.98667 2.796,4.15067 3.7533,6.45733 0.2587,0.63067 0.484,1.016 0.7654,1.84667 l 0.48,1.708 c 0.324,1.136 0.6426,2.27333 0.9573,3.396 0.7867,2.156 0.8973,4.66133 1.1613,6.985333 0.3907,2.330667 0.1787,4.558667 0.017,6.661333 -0.017,2.109334 -0.5614,4.052 -0.9707,5.830667 -0.3013,1.804 -1.088,3.330667 -1.5987,4.708 -0.5026,1.388 -1.2546,2.468 -1.7053,3.404 -1.0933,1.812 -1.9107,2.692 -1.9107,2.692 0,0 0.5574,-1.068 1.276,-2.994667 0.2854,-0.994667 0.8227,-2.122667 1.072,-3.533333 0.248,-1.414667 0.7414,-2.925333 0.8387,-4.672 0.1653,-1.732 0.4587,-3.573333 0.3147,-5.554667 -0.025,-1.979999 -0.025,-4.049333 -0.472,-6.111999 -0.328,-2.086667 -0.5414,-4.190667 -1.3614,-6.453337 -0.336,-1.11466 -0.672,-2.24266 -1.0133,-3.36933 l -0.5133,-1.70133 -0.6387,-1.416 c -0.8213,-2.09467 -1.964,-4.02134 -3.2253,-5.79734 -1.3134,-1.74933 -2.7414,-3.364 -4.3547,-4.70533 -3.2027,-2.70667 -6.844,-4.448 -10.1107,-5.54667 -3.284,-1.08133 -6.1853,-1.64133 -8.24,-1.84666 -2.0453,-0.23734 -3.2506,-0.256 -3.2506,-0.256"
         style="fill:#ffffff;fill-opacity:1;fill-rule:nonzero;stroke:none;stroke-width:0.133333" />
      <path
         id="path51"
         d="m 2199.1742,-138.41313 c 0,0 1.076,0.48267 2.7053,1.756 1.5907,1.292 3.828,3.30667 5.8147,6.312 2.012,2.97734 3.768,6.90934 4.6707,11.34934 0.4173,2.22133 0.756,4.54133 0.7653,6.916 0.076,1.19066 -0.01,2.37333 -0.077,3.568 l -0.097,1.79733 c -0.068,0.79333 -0.1733,1.20267 -0.2546,1.82267 -0.7827,4.57066 -1.548,9.138663 -2.3987,13.398663 -0.5067,2.134667 -1.252,4.177333 -1.8427,6.109333 -0.6373,1.918667 -1.2386,3.734667 -1.7946,5.410667 -0.5614,1.666666 -1.348,3.097333 -1.928,4.393333 -0.604,1.284 -1.1307,2.409333 -1.5654,3.332 -0.964,1.806667 -1.5986,2.78 -1.5986,2.78 0,0 0.344,-1.109333 0.9533,-3.049333 0.268,-0.978667 0.5853,-2.164 0.9533,-3.525334 0.34,-1.370666 0.8467,-2.873333 1.216,-4.551999 0.6547,-3.385334 1.5854,-7.24 2.4787,-11.409334 0.5493,-4.311999 1.268,-8.885336 1.9787,-13.465336 0.081,-0.51866 0.2346,-1.24266 0.2546,-1.6 l 0.12,-1.66666 c 0.08,-1.10667 0.1867,-2.21334 0.132,-3.30934 0.01,-2.188 -0.112,-4.33866 -0.4093,-6.39866 -0.5827,-4.12534 -1.8373,-7.84667 -3.3347,-10.86267 -0.7533,-1.50667 -1.5306,-2.856 -2.3133,-3.992 -0.7613,-1.16133 -1.54,-2.09867 -2.204,-2.85067 -1.3227,-1.51066 -2.224,-2.264 -2.224,-2.264"
         style="fill:#ffffff;fill-opacity:1;fill-rule:nonzero;stroke:none;stroke-width:0.133333" />
      <path
         id="path52"
         d="m 2356.4009,-138.86113 c 0,0 -0.288,0.10534 -0.7614,0.412 -0.5013,0.26534 -1.1653,0.74267 -1.9853,1.37734 -0.8733,0.552 -1.6987,1.54666 -2.732,2.49733 -0.4373,0.56533 -0.9013,1.164 -1.3947,1.8 -0.5146,0.59867 -1,1.27067 -1.408,2.05467 -0.4386,0.74933 -0.8946,1.52266 -1.3693,2.328 -0.4053,0.84133 -0.7507,1.75466 -1.1413,2.66666 -0.884,1.77867 -1.3267,3.85467 -1.9094,5.94534 -0.676,2.03333 -0.8973,4.344 -1.404,6.67466 -0.488,2.328 -0.7866,4.65867 -1.1946,7.01067 -0.4467,2.372 -0.8934,4.74667 -1.332,7.082667 -0.5734,2.346666 -0.9987,4.661333 -1.808,6.846666 -0.7094,2.2 -1.4107,4.314667 -2.424,6.194667 -0.9014,1.922666 -1.7534,3.724 -2.868,5.214666 -1.028,1.528 -1.9427,2.942667 -2.8747,4.093333 -1,1.096 -1.8667,2.052 -2.5813,2.841334 -1.4374,1.565333 -2.288,2.405333 -2.288,2.405333 0,0 0.612,-1.054667 1.7306,-2.832 0.56,-0.881333 1.2454,-1.948 2.0334,-3.172 0.7053,-1.269333 1.344,-2.778666 2.1733,-4.338666 0.8853,-1.532 1.48,-3.362667 2.1947,-5.242667 0.8,-1.841333 1.268,-3.924 1.8586,-6.038667 0.6854,-2.075999 0.8934,-4.398666 1.4467,-6.643999 0.396,-2.314667 0.7947,-4.671997 1.1947,-7.022667 0.4506,-2.37733 0.8173,-4.808 1.34,-7.104 0.5106,-2.284 0.9413,-4.608 1.7626,-6.828 0.7094,-2.22667 1.4107,-4.36267 2.5294,-6.22267 0.5146,-0.94 0.944,-1.888 1.4933,-2.73866 0.612,-0.8 1.204,-1.57867 1.7733,-2.328 1.0214,-1.56534 2.5187,-2.55734 3.556,-3.62 1.272,-0.836 2.2627,-1.68267 3.2667,-2.112 0.936,-0.52667 1.736,-0.808 2.2893,-0.96934 0.532,-0.19466 0.8334,-0.232 0.8334,-0.232"
         style="fill:#ffffff;fill-opacity:1;fill-rule:nonzero;stroke:none;stroke-width:0.133333" />
      <path
         id="path53"
         d="m 2481.8529,-132.56646 c 0,0 -0.3054,-0.0547 -0.8667,-0.005 -0.548,-0.0147 -1.3667,0.208 -2.348,0.45066 -0.9827,0.32267 -2.132,0.76534 -3.336,1.54667 -1.28,0.59733 -2.4187,1.84667 -3.832,2.81333 -1.192,1.312 -2.632,2.52 -3.888,4.104 -1.1787,1.628 -2.7093,3.18267 -3.7907,5.01867 -1.1733,1.90533 -2.6333,3.83467 -3.6533,5.86667 -1.092,2.036 -2.3093,3.976 -3.3173,6.172 -2.212,4.21066 -4.2374,8.56533 -6.3174,12.58533 -2.0106,4.049333 -4.12,7.756 -6.0133,10.868 -1.0213,1.530666 -2,2.892 -2.868,4.095999 -0.804,1.237334 -1.7827,2.148 -2.4573,2.956 -1.4347,1.582667 -2.2774,2.434667 -2.2774,2.434667 0,0 0.608,-1.073333 1.7147,-2.854667 0.532,-0.905333 1.3067,-1.901333 1.892,-3.254666 0.6387,-1.317333 1.3533,-2.8 2.1827,-4.368 1.46,-3.282667 3.1866,-7.082667 4.964,-11.226666 1.796,-4.137334 3.7866,-8.535997 5.9813,-12.887997 1.0453,-2.164 2.416,-4.304 3.6067,-6.41334 1.1493,-2.19066 2.6933,-3.88533 3.9693,-5.768 1.3053,-2.016 3.032,-3.44533 4.432,-5.04933 1.4413,-1.55733 3.1733,-2.70667 4.5733,-3.896 1.6534,-0.92533 3.0147,-1.96667 4.516,-2.39333 1.4,-0.60667 2.7054,-0.86934 3.7814,-1.032 1.0813,-0.10667 1.9373,-0.088 2.5053,0.04 0.5707,0.08 0.8467,0.19733 0.8467,0.19733"
         style="fill:#ffffff;fill-opacity:1;fill-rule:nonzero;stroke:none;stroke-width:0.133333" />
      <path
         id="path54"
         d="m 2587.9689,-112.33446 c 0,0 -1.0934,0.29733 -2.676,1.30933 -0.8334,0.436 -1.7427,1.12267 -2.7134,1.99067 -1.0506,0.76267 -1.948,1.96 -3.0453,3.088 -1.1613,1.07333 -1.9533,2.69333 -3.068,4.10133 -1.16,1.39067 -1.824,3.27867 -2.8613,4.95867 -1.064,1.682667 -1.732,3.658666 -2.5654,5.590666 -0.82,1.974667 -1.6586,3.98 -2.5013,5.985334 -0.864,2.006666 -1.7267,4.017333 -2.5773,5.991999 -1.0094,1.970667 -2.0974,3.861334 -3.0974,5.705334 -1.008,1.841333 -2.2546,3.44 -3.3013,5.036 -1.0147,1.612 -2.3093,2.925333 -3.3427,4.223999 -1.012,1.324 -2.204,2.321334 -3.148,3.284 -0.936,0.969334 -1.9133,1.666667 -2.6293,2.308 -1.5173,1.208 -2.492,1.736 -2.492,1.736 0,0 0.7827,-0.782666 2.008,-2.241333 0.584,-0.758667 1.3827,-1.584 2.1147,-2.693333 0.7346,-1.109334 1.6706,-2.249334 2.5053,-3.645334 0.824,-1.398666 1.88,-2.789333 2.7307,-4.439999 0.8626,-1.633334 1.888,-3.292 2.7773,-5.086667 0.872,-1.798667 1.7133,-3.676 2.676,-5.536 0.812,-1.989333 1.636,-4.010666 2.4613,-6.030666 0.8854,-2.010667 1.7747,-4.024 2.6467,-6.005334 0.8893,-2.013333 1.7733,-3.987999 2.9867,-5.737333 1.1826,-1.757333 2.0706,-3.590663 3.4586,-5.000003 1.3267,-1.424 2.3547,-2.95066 3.768,-3.95866 1.3094,-1.08 2.4587,-2.12 3.7307,-2.724 1.1693,-0.71334 2.24,-1.236 3.1853,-1.53067 0.888,-0.40933 1.688,-0.48 2.1867,-0.592 0.5067,-0.0933 0.7827,-0.088 0.7827,-0.088"
         style="fill:#ffffff;fill-opacity:1;fill-rule:nonzero;stroke:none;stroke-width:0.133333" />
    </g>
    <g
       id="g5"
       style="display:inline">
      <g
         id="g11"
         transform="translate(1505.5809,-837.77711)"
         style="display:inline">
        <path
           id="path8"
           style="display:inline;fill:#2c2d2b;fill-opacity:1;fill-rule:nonzero;stroke:none"
           d="m 2901.429,4790.7391 c -0.2102,-2.4777 -1.0987,-4.926 -1.0987,-7.4121 0,-278.12 1319.6015,-503.5694 2947.4415,-503.5694 1627.88,0 2947.4854,225.4494 2947.4854,503.5694 0,2.4861 -0.8884,4.9344 -1.0986,7.4121 h -438.9697 c 0.5464,-2.4714 1.6406,-4.9257 1.6406,-7.4121 0,-158.92 -1123.367,-287.7833 -2509.087,-287.7833 -1385.7,0 -2509.0137,128.8633 -2509.0137,287.7833 0,2.4864 1.0941,4.9407 1.6406,7.4121 z"
           transform="matrix(0.13333333,0,0,-0.13333333,0,1404.2933)" />
        <path
           id="path9"
           style="display:inline;fill:#1d1d1b;fill-opacity:1;fill-rule:nonzero;stroke:none"
           d="m 3299.9983,4790.7391 c 24.6354,-24.9025 54.4922,-41.6748 54.4922,-41.6748 l 1.5527,0.4541 c -11.32,11.1 -17.3144,22.3886 -17.3144,33.8086 0,2.4864 1.0941,4.9407 1.6406,7.4121 z m 5055.1906,0 c 0.5464,-2.4714 1.6406,-4.9257 1.6406,-7.4121 2.2925,2.4502 3.3037,4.9448 5.1123,7.4121 z"
           transform="matrix(0.13333333,0,0,-0.13333333,0,1404.2933)" />
        <path
           id="path10"
           style="display:inline;fill:#1d1d1b;fill-opacity:1;fill-rule:nonzero;stroke:none"
           d="m 2901.1067,4790.7391 c -0.2142,-2.4727 -0.7764,-4.9309 -0.7764,-7.4121 0,-278.12 1319.6015,-503.5694 2947.4415,-503.5694 1627.88,0 2947.4854,225.4494 2947.4854,503.5694 0,2.4846 -0.8151,4.9358 -1.0254,7.4121 h -140.6982 c -95.1619,-255.6642 -2058.978,-460.1311 -3202.339,-425.2149 -688.42,21.06 -1329.23,89.2155 -1778.54,175.6055 -1.44,-0.41 -2.8889,-0.7113 -4.6289,-0.5713 -68.85,5.08 -138.7451,24.5739 -205.4151,41.2939 -109.59,27.5 -218.3425,59.7784 -322.6025,103.6084 -55.8167,23.4699 -124.8128,60.4082 -169.4532,105.2784 z"
           transform="matrix(0.13333333,0,0,-0.13333333,0,1404.2933)" />
        <path
           id="path11"
           style="display:inline;fill:#505150;fill-opacity:1;fill-rule:nonzero;stroke:none"
           d="m 3036.9124,4790.7391 c 32.4065,-49.7069 105.0146,-83.8477 105.0146,-83.8477 256.3,-116.92 885.6302,-269.1222 1780.6202,-283.2422 1425.36,-22.51 2248.2569,94.3945 2248.2569,94.3945 -728.46,-62.95 -2189.8097,-40.4589 -2189.8097,-40.4589 -1492.87,80.94 -1573.7646,197.8549 -1704.1846,269.7949 -26.2735,14.499 -43.6629,29.1586 -55.166,43.3594 z"
           transform="matrix(0.13333333,0,0,-0.13333333,0,1404.2933)" />
      </g>
      <path
         id="path23"
         d="m 2585.8542,71.121536 c -2.1987,3.890666 -0.8547,1.508 -0.013,0.02 -4.1587,7.354666 -10.5734,13.297333 -14.9707,20.471999 -2.924,4.773333 -5.6373,11.554665 -11.3413,14.122665 -10.932,4.93467 -16.4707,-16.057331 -18.8014,-22.054665 -4.6493,-11.979999 -11.204,-24.471999 -10.1146,-37.726665 1.0466,-12.721333 9.06,-23.450666 13.8586,-34.890666 3.432,-8.1773332 18.6894,-49.010666 30.1614,-27.143999 8.1933,15.61199917 15.9653,38.419999 17.3093,56.034665 0.7653,9.968 -1.0987,22.322666 -6.088,31.166666 m -88.076,188.830664 c -3.568,0.83866 -6.384,-11.38267 -6.988,-13.604 -1.9173,-7.01867 -1.672,-13.292 -0.324,-20.39867 19.7707,-27.7 39.1347,-55.656 58.196,-83.844 0.1893,0.51334 0.484,0.96134 0.884,1.32534 -18.8867,38.104 -36.408,76.89333 -51.768,116.52133 m -40.004,106.16933 c -3.272,5.98666 -8.5933,15.27066 -16.9507,13.34933 -13.5013,-18.69866 -17.2666,-43.66 -9.4146,-65.27733 4.3733,-12.03333 10.9146,-23.12133 17.5506,-34.02533 5.02,-8.25067 9.9027,-20.00267 19.0307,-24.508 7.156,-3.536 12.6507,1.35733 15.9867,7.40933 8.6893,15.75467 1.096,29.36133 -4.884,44.484 -7.64,19.31467 -14.6454,38.90133 -21.3187,58.568 m -32.276,107.10666 c -2.9067,11.312 -5.1907,22.76827 -7.6147,34.1812 -2.2893,10.8136 -5.292,21.48027 -7.4826,32.3068 -4.616,4.66667 -10.5227,2.93333 -14.68,-1.34693 -3.5387,-7.11974 -7.796,-14.03947 -9.812,-21.8 -1.9947,-7.66667 -1.464,-16.6932 -0.5627,-24.4968 14.7267,-23.888 31.244,-46.43333 46.684,-69.83627 4.5147,-2.76133 4.5893,6.62267 5.0867,9.2 -4.0867,13.90654 -8.0334,27.84934 -11.6187,41.792 m -44.508,2.32814 c -11.9133,14.4948 -23.8067,-28.57347 -25.2827,-34.95374 -0.7106,-3.088 -1.496,-6.31973 -1.5653,-9.5104 -0.1707,-7.96266 4.3213,-16.22933 8.868,-22.456 12.732,-17.41866 25.616,-34.69466 37.9947,-52.37466 10.4506,-6.95067 16.1626,7.824 19.12,15.28933 4.6146,11.672 7.524,24.716 5.0706,37.23467 -2.204,11.26533 -9.1426,20.852 -16.1,29.6744 -7.8706,9.9792 -15.48,20.04426 -22.6133,30.5672 -1.8453,2.15986 -3.688,4.3208 -5.4787,6.5104 -11.5226,14.06253 -1.4253,1.73746 -0.013,0.0188 m -15.908,28.64013 c -0.9653,4.53333 -2.5093,8.81293 -4.376,12.94626 -2.2627,7.3204 -5.836,14.18707 -10.0947,20.5204 -3.7813,5.62654 -8.2986,11.14627 -14.7386,13.7864 -4.9974,3.70678 -9.8467,3.5599 -14.4254,1.06667 0,-1.2 -1.2626,-2 -2.0226,-2.75987 -6.1307,-3.8932 -11.2174,-10.4932 -14.952,-16.64013 -4.22,-6.9464 -6.1294,-14.8136 -4.4707,-22.86667 1.7267,-8.37346 6.6907,-15.51039 11.204,-22.59999 5.0147,-7.86934 10.1573,-15.67187 15.3853,-23.40787 1.692,-3.52653 3.8667,-6.70147 6.6067,-9.03227 0.1653,-0.2572 0.3227,-0.52493 0.488,-0.7916 0.468,-0.27093 0.924,-0.45786 1.3787,-0.6016 8.448,-5.33066 16.1986,6.47707 19.8933,12.62294 6.776,11.26506 12.9907,24.28906 10.124,37.75733 m -81.2147,-15.34853 c 1.388,1.1204 5.3907,4.34586 -0.01,-0.008 l -0.017,-0.008 c -2.5133,-2.03067 -4.8613,-4.25467 -6.9973,-6.67187 -5.6747,-11.03387 -11.1747,-22.1776 -16.496,-33.3776 -2.2027,-7.36253 -4.0734,-14.95573 -2.2067,-22.584 0.944,-3.844 2.4667,-7.53067 4.16,-11.10133 0.8387,-1.75467 1.7187,-3.48134 2.62,-5.20534 0.668,-1.292 2.424,-3.484 2.272,-5.00533 7.4253,-11.36133 15.2827,-22.40667 23.1893,-33.44 1.0054,-0.356 2.0387,-0.63733 3.1134,-0.76 9.0013,-1.63067 13.944,5.63467 18.4026,12.2 2.1014,4.66933 4.3894,9.06267 6.5547,12.90933 1.6627,3.32267 3.28,6.66934 4.9133,10.00534 1.8507,6.664 4.836,13.836 5.1974,20.77066 0.1613,3.08534 -0.3014,6.15334 -1.08,9.13987 -0.8547,3.31093 -2.7734,6.8572 -3.0334,10.2604 -8.528,13.08387 -16.5933,26.4224 -24.612,39.81827 -4.6106,4.55466 -8.7066,8.91093 -15.972,3.0572 m -4.78,33.12133 c -0.5666,1.24013 -1.132,2.48026 -1.6946,3.7204 -5.5507,8.75986 -10.088,21.42653 -20.0254,26.21293 -12.8213,6.18704 -23.144,-7.46613 -29.7413,-16.35987 -7.296,-13.0796 -12.548,-26.06666 -14.56,-41.04106 0.3493,-4.04427 0.9787,-8.03853 1.9013,-11.96667 1.0294,-1.65893 2.132,-3.27613 3.1934,-4.91093 2.4213,-8.21053 6.956,-15.69333 11.9613,-22.56253 3.1693,-4.3464 7.8707,-11.3412 14.0853,-10.77347 6.592,0.60413 11.0094,8.612 13.4587,13.8776 3.7467,8.0412 6.316,16.55987 8.9747,25 3.4413,7.02653 6.9333,14.0172 10.4893,20.99066 1.5573,5.3068 2.4373,10.66667 2.072,15.9068 0.144,-0.7204 0.2413,-0.8 -0.1147,1.90614 m -70.9933,-50.1728 c -5.3987,4.44787 -11.26,-2.07347 -14.4547,-6.06307 -5.38,-12.836 -10.616,-25.75466 -15.8826,-38.68253 -1.864,-6.34133 -4.352,-12.748 -4.352,-19.43733 3.2586,-12.95867 11.0173,-23.196 18.7973,-33.71867 2.692,-3.63867 5.696,-8.27066 10.0053,-10.14 5.3427,-2.33733 9.8254,4.48667 13.3814,7.348 6.1413,14.12267 12.3866,28.204 18.6986,42.256 -0.1866,7.51467 0.2174,14.304 -2.7733,21.4 -2.736,6.4828 -6.524,12.74013 -10.14,18.7652 -1.9787,3.2948 -4.14,6.46667 -6.3893,9.576 -2.072,2.86827 -4.148,6.42707 -6.8907,8.6964 m -19.0827,34.61293 c -3.1093,6.77347 -4.7253,13.46667 -6.0773,20.82653 -2.5453,6.0272 -5.2827,13.0672 -9.9707,17.8 -5.4919,5.56054 -9.3666,-5.43946 -11.3239,-9.41293 -8.3707,-16.98707 -13.076,-36.13333 -18.4814,-54.20266 -6.3133,-17.09894 -6.832,-38.13747 7.792,-51.4348 7.1507,-6.48934 13.0627,1 16.4334,7.40146 4.4906,8.5464 7.8426,17.75467 10.9559,26.86667 5.5427,13.54533 9.04,27.15467 10.6987,41.87613 l -0.027,0.2796 m -56.6626,-80.19186 c -6.7667,-5.70267 -9.9453,-16.57334 -12.7947,-24.164 -3.4666,-9.21867 -6.044,-18.72934 -9.2253,-28.044 -3.1733,-9.308 -6.9213,-18.412 -7.98,-28.26267 -0.6093,-5.636 0,-14.87066 3.224,-19.63333 5.3973,-7.98267 11.7267,0.5 15.356,6.30267 4.7507,7.58533 8.5787,15.82 12.2453,23.97333 4.232,9.42133 7.568,19.24 10.12,29.248 1.6587,6.49733 2.9734,12.78266 2.888,19.49866 -0.093,6.86267 -0.3786,22.524 -9.6973,23.56 0.8707,0.27334 1.9387,0.8 2.8147,0.988 -2.68,-0.57333 -4.9694,-1.8 -6.9507,-3.46666 M 2093.3302,316.4722 c -1.3986,-0.892 -2.88,-3.02267 -4.3893,-6.84534 -4.6533,-11.77866 -8.7827,-23.78666 -13.2973,-35.62 -5.7,-14.94 -11.4854,-29.864 -18.4734,-44.25599 -2.1906,-8.68934 -3.764,-16.75467 -2.9,-26.12134 2.6707,-4.60266 4.9334,-5.48266 6.788,-2.696 11.1747,22.74267 22.9107,45.21867 33.9387,68.03733 3.2427,8.804 6.2667,18.044 7.3907,27.388 0.8493,7.124 -3.4214,23.70534 -9.0574,20.11334 m -61.6146,-192.33733 c -3.096,-5.86267 -6.3587,-11.63867 -9.7107,-17.36534 -2.0147,-6.71066 -3.3427,-13.754661 -2.5893,-20.783995 0.736,-6.871999 3.3506,-13.458666 6.564,-19.522666 1.9093,-3.284 3.892,-6.534666 5.9333,-9.74 5.368,-7.431999 10.6893,-4.518666 15.3053,0.150667 5.584,10.38 11.224,20.732 17.2174,30.882666 6.0013,10.169333 12.6973,19.851998 19.036,29.810668 1.824,9.20266 -1.1334,17.992 -5.7134,25.92133 -2.4253,3.308 -4.7853,6.60933 -7.0826,9.91467 -4.4187,6.364 -14.4067,9.904 -19.7147,2.61466 -7.168,-9.83866 -12.4933,-21.64133 -19.2453,-31.88266 m 19.1853,63.43733 c -1.348,3.088 -2.5907,6.244 -3.7133,9.47333 -0.4507,0.80267 -0.9267,1.55467 -1.416,2.22667 -11.5454,-30.44267 -23.652,-60.51067 -36.1574,-90.57467 0.2294,-0.584 0.456,-1.16933 0.6774,-1.76133 12.7906,22.76533 25.228,45.752 38.2026,68.44 l 1.2667,2.57333 c 1.1533,3.096 1.8587,6.34667 1.14,9.62267 M 2007.4582,76.824202 c -1.6213,0.101334 -15.68,-23.918666 -17.0826,-26.303999 -5.512,-9.396 -10.3707,-19.362666 -12.7307,-30.057333 1.152,-6.985333 2.8973,-13.8573327 5.0533,-20.59199917 2.2294,-6.96533313 4.5467,-14.43733283 8.052,-20.87733283 6.8494,-3.984 12.82,5.458667 16.4707,9.977333 5.428,6.7279999 9.8,14.9026664 14.3813,22.236 3.976,6.365333 8.536,13.403999 8.38,21.206666 -0.1586,7.762666 -4.612,14.350666 -8.388,20.819999 -1.9106,3.278667 -8.9973,21.650666 -14.136,23.590666 m 51.928,-46.210665 c 4.14,-10.448 12.9014,-18.156 21.0574,-25.4839996 5.6426,-5.07866657 16.792,-20.0519994 25.24,-18.4066664 11.072,2.161333 14.3346,15.5306664 16.7853,24.773333 3.8493,14.546666 13.56,27.802666 13.0667,43.349332 -0.3627,11.336 -6.8734,21.158666 -13.4454,29.983999 -5.9933,8.046667 -18.7626,25.901335 -31.996,21.026665 -5.9773,-9.119998 -12.1413,-18.201331 -18.112,-27.359998 -6.1933,-11.744 -13.4973,-25.661332 -14.7906,-39.095999 0.3866,-2.937333 1.0426,-5.869333 2.1946,-8.786666 m 94.4947,45.786665 c 3.5907,2.924 6.2827,6.778667 9.0693,10.522667 8.728,14.661331 16.488,29.974661 24.148,45.310661 2.424,8.01334 4.3893,16.16667 5.9507,24.388 1.5346,8.08267 -0.035,14.59867 -3.3614,21.99734 -6.0186,8.692 -12.032,19.008 -20.3626,25.70266 -3.5547,2.86 -7.9907,5.19067 -12.6827,4.92267 -5.3146,-0.29733 -9.0733,-4.12267 -12.5066,-7.78933 -9.3694,-16.724 -18.808,-33.412 -28.2134,-50.11467 -3.7533,-10.37467 -9.8173,-23.84667 -5.7426,-34.85467 10.6586,-14.028 21.1613,-28.251995 32.272,-41.931994 3.7986,-1.32 7.788,-1.12 11.4293,1.846666 m 16.344,-16.135999 c 0.4533,-2 1.172,-3.937334 2.1893,-5.801334 -0.1653,0.434667 -0.328,0.877334 -0.4706,1.314667 2.9719,-9.114666 10.1613,-15.5 16.3159,-22.314666 9.1627,-10.133333 26.6787,-43.994666 43.9134,-37.6799991 8.512,3.1146666 12.7746,14.041333 16.764,21.6013331 8.5333,16.155999 16.36,34.013332 16.7,52.770665 0.2253,12.330666 -7.2187,21.489333 -14.412,30.448001 -8.7374,10.888 -16.504,22.57333 -25.1134,33.58133 -5.5293,5.05733 -12.4666,9.97067 -19.344,4.04667 -6.4533,-5.55734 -10.4893,-14.492 -14.604,-21.66134 -8.26,-14.376 -26.1639,-37.838661 -21.9386,-56.305327 m 114.988,19.911999 c 11.356,3.62 14.7813,18.333333 19.5106,27.767998 6.4614,12.87467 14.504,25.568 17.2267,39.924 0.3573,0.748 0.728,1.492 1.0853,2.24267 0.6294,4.77066 1.4534,9.56266 1.2334,14.388 -0.28,5.97733 -2.48,11.15333 -5.364,16.31066 -5.98,10.68934 -13.1694,20.168 -20.1747,30.15734 -6.6867,9.54533 -12.5573,19.67733 -20.068,28.62533 -3.264,3.888 -7.1853,9.06533 -12.9147,8.25066 -5.3893,-0.76533 -9.5573,-5.72133 -12.5826,-9.828 -3.78,-7.68533 -7.5507,-15.38133 -11.412,-23.03199 -2.28,-5.312 -4.752,-10.60934 -7.2787,-15.872 -6.328,-13.172 -13.1347,-32.808 -7.916,-47.32 6.024,-16.72134 19.9253,-28.33067 30.5413,-42.02667 5.696,-7.34533 16.2827,-33.361331 28.1134,-29.587998 m 16.5066,-22.617333 c 4.216,-17.685333 17.548,-31.054665 25.5734,-46.937332 3.2506,-6.4266663 6.5213,-17.7213327 15.828,-14.6066661 6.6866,2.236 11.0973,11.1759997 14.328,16.8440001 8.2,14.390666 19.7706,26.822666 26.5933,42.019998 12.948,28.806666 -11.6227,59.661331 -31.0613,79.089331 -5.904,5.90267 -13.9254,6.80133 -20.4427,3.492 -2.3867,-1.21333 -4.9333,-8.98533 -6.168,-11.21333 -2.1867,-3.93867 -4.376,-7.87867 -6.576,-11.80267 -4.1427,-7.39067 -8.6773,-14.687998 -12.4467,-22.229331 -5.252,-10.516 -8.3573,-23.174667 -5.628,-34.656 m 91.0747,38.866666 0.01,-0.0093 0.01,-0.01333 c 6.7587,-6.417333 12.4974,-3.092 17.016,2.762667 4.848,10.141338 9.5774,20.330668 14.304,30.526668 1.948,7.86133 3.436,17.25733 1.352,25.228 -1.9986,7.59733 -6.72,14.276 -11.1613,20.62267 -4.816,6.89066 -9.1573,14.09866 -14.168,20.85466 -4.2373,5.70534 -8.908,11.06 -13.0547,16.82 -2.416,3.36 -5.8586,8.50267 -10.3493,9.08534 -6.296,0.816 -9.652,-11.42134 -11.46,-15.64 -7.312,-17.028 -14.8107,-33.71867 -10.9693,-52.60134 12.208,-18.30266 24.1786,-36.77333 36.152,-55.234665 0.7733,-0.801333 1.5093,-1.628 2.3253,-2.401333 m 35.3773,-48.866665 c 2.344,-5.529334 1.276,-2.997334 0.023,-0.03867 5.8133,-13.709333 15.0827,-25.966666 20.46,-39.8133324 2.4453,-3.6399999 4.9427,-7.24399978 7.5067,-10.7986664 2.1906,-3.0426666 4.54,-7.4120002 8.4266,-8.6880002 6.1174,-1.997333 10.988,6.6613336 13.748,10.4640002 4.9347,9.7493331 9.52,19.6559998 14.3347,29.4586658 2.688,5.465333 5.904,10.296 5.7427,16.486666 -0.2774,10.898667 -5.9294,21.684 -11.2547,31.033333 -6.1253,10.753333 -13.344,20.974666 -21.2133,30.617327 -2.8854,3.536 -5.8614,7.01867 -9.0814,10.28933 -2.3226,2.36667 -4.952,5.088 -8.4773,5.572 -5.3467,0.72667 -9.58,-4.03066 -12.2813,-7.80933 -3.488,-4.89067 -6.0267,-10.40933 -8.2174,-15.923994 -2.8413,-7.146667 -5.0746,-14.48 -5.484,-22.166666 -0.5186,-9.878667 1.9027,-19.529333 5.748,-28.628 -1.4506,3.434667 -3.1053,7.333333 0.02,-0.05467 m -39.3613,203.91866 c -0.128,-1.04133 -0.2267,-2.88267 -0.2813,-5.86933 2.8373,-9.528 5.8533,-18.456 9.5826,-26.896 8.444,-12.35733 16.9467,-24.692 25.496,-36.99467 4.7227,-4.476 11.6294,-8.88 17.9174,-4.68933 5.0706,3.38533 7.7933,9.77867 9.996,15.22267 6.8653,16.92 12.2626,35.20666 5.648,53.09466 -3.8707,10.47867 -10.8387,20.08533 -16.8614,29.42667 -4.2053,6.53333 -8.3026,13.11733 -12.496,19.656 -2.924,4.56266 -6.9333,11.208 -12.676,12.49466 -7.3,1.644 -11.808,-8.88533 -14.416,-13.84266 -6.724,-12.81867 -10.8266,-27.13867 -11.9093,-41.60267 m -69.5987,79.70133 c 12.08,-16.81866 24.084,-33.68 36.0107,-50.60133 8.9333,-7.52933 18.388,-5.352 25.0067,4.28267 33.8933,49.308 2.34,81.84133 -21.2414,109.87333 -3.7866,4.492 -8.432,15.00266 -15.628,13.93466 -5.3893,-0.8 -9.4893,-6.636 -12.2386,-10.81733 -4.104,-6.24 -7.3294,-13.05467 -10.7654,-19.67467 -6.9973,-15.32799 -8.516,-33.75999 0,-48.15333 -0.812,1.03334 -1.3693,1.65334 -1.144,1.156 m -44.5146,-56.22133 c -0.081,1.00533 -0.2934,0.21867 -0.6347,-5.58933 0.9253,-3.392 2.336,-6.63467 3.936,-9.82 17.4093,-22.62267 34.616,-45.404 51.128,-68.69733 4.952,-3.19067 9.5453,-1.12534 13.544,3.2 6.504,7.03066 9.8427,19.28133 12.7267,28.196 6.2746,19.38533 3.2506,36.23599 -8.4907,52.67333 -13.088,18.33333 -26.5373,36.40133 -39.5587,54.79466 -11.3986,5.07067 -17.184,-13.96133 -20.5706,-21.396 -4.8827,-10.724 -10.196,-21.64533 -12.08,-33.36133 m -52.1787,59.544 c -0.2307,0.16133 0.081,-1.01333 1.6453,-5.03467 4.7147,-12.088 15.636,-25.83066 27.8747,-30.93466 18.796,-7.83067 26.624,20.23466 33.1867,32.82666 1.204,10.12934 1.492,19.78534 -3.1227,29.17334 -2.544,5.17733 -5.7773,10.09199 -8.6933,15.06266 -3.1267,5.33067 -6.368,10.62267 -10.24,15.448 -4.0067,5.00267 -10.1147,15.05467 -17.796,11.13867 -4.2454,-2.16134 -6.448,-7.00534 -8.5667,-11.01334 -2.9987,-5.66933 -6.5467,-11.02666 -9.7027,-16.612 -0.7666,-1.72933 -1.5453,-3.46133 -2.3106,-5.188 -3.7854,-11.34533 -5.4534,-23.06666 -2.2747,-34.86666 m -34.2933,-45.44533 c -2.9854,-6.424 -5.8747,-12.88534 -8.46,-19.48134 -4.632,-11.83866 -5.9387,-23.89333 -9.3667,-35.808 -0.736,-2.56533 -0.744,-5.33866 -0.204,-8.22666 0.012,-0.42933 0.01,-0.856 0.021,-1.28933 0.1266,-0.15867 0.2506,-0.32267 0.3786,-0.484 3.2707,-12.57067 12.9173,-23.42134 21.5027,-32.76534 3.7213,-4.05466 7.72,-9.29466 13.1386,-11.03866 7.2094,-2.328 10.612,6.036 12.7574,11.30133 6.8093,10.69867 12.236,22.77333 17.5066,34.292 11.4374,24.96666 13.6374,48.672 -2.488,72.53333 -2.9946,4.42533 -5.5426,9.12 -9.048,13.18533 -3.0493,3.53867 -6.928,7.15867 -11.6506,8.15867 -5.6054,1.188 -9.8,-2.46133 -12.9694,-6.648 -0.4666,-1.02933 -0.9306,-2.07067 -1.4106,-3.09733 -3.1827,-6.89734 -6.504,-13.73867 -9.708,-20.632 m -61.9707,-21.88267 c -15.22,22.01333 -37.236,-39.34666 -41.668,-46.95066 -5.5893,-9.59067 -10.8146,-19.568 -13.524,-30.40134 -2.1733,-8.664 -2.564,-19.62266 5.0027,-25.976 4.2667,-6.14666 8.636,-12.30266 13.0587,-18.68266 6.1426,-2.62 10.8853,1.91466 14.3693,6.54133 8.944,16.33067 17.4867,32.89333 26.824,49.008 6.0133,10.372 10.8667,21.04667 9.5227,33.30933 -1.2667,11.56133 -7.0267,23.66667 -13.5854,33.152 m 4.6654,14.724 c 0.039,-0.188 0.069,-0.372 0.1026,-0.568 2.3134,-12.64 9.788,-41.008 27.0814,-26.3 5.876,5.008 21.7919,35.45867 24.8639,44.78133 0.6547,1.24 1.28,2.49067 1.94,3.724 2.8374,10.94267 7.1587,21.732 7.8854,33.12267 0.6773,10.656 -3.4787,20.576 -8.7067,29.62267 -2.804,4.47866 -6.044,8.60399 -9.7147,12.37733 -6.6613,7.388 -11.7453,7.12533 -15.8319,4.04933 -8.2654,-6.244 -12.5054,-26.448 -16.4707,-35.76 -8.7533,-20.55733 -14.964,-42.604 -11.1493,-65.04933 M 2508.9609,73.417536 c 12.4973,2.104 26.0293,41.502664 27.4866,47.050664 2.6387,10.04667 -1.7266,19.22533 -4.728,28.624 -11.4693,16.42533 -22.9106,32.86533 -34.5533,49.164 -20.1187,28.152 -32.596,-18.06933 -38.9707,-32.156 -2.9666,-10.03867 -2.8,-19.92933 0.7814,-29.796 14.0626,-19.55067 28.7626,-38.687998 42.3413,-58.570664 2.42,-3.541334 5.0093,-4.758667 7.6427,-4.316 m 152.9066,-130.30133 c -1.5613,-13.781333 -13.3146,-24.641333 -26.1986,-28.325333 0.616,0.174667 1.2933,0.364 1.952,0.557333 -0.5614,-0.162666 -1.208,-0.349333 -1.96,-0.562666 -0.2094,-0.06267 -0.3334,-0.09333 -0.5067,-0.142667 0.1707,0.04533 0.3107,0.08533 0.4973,0.14 -5.5893,-1.597333 -11.9893,-0.437333 -17.112,2.122667 -2.628,1.314666 -5.0653,3.095999 -6.8986,5.407999 -0.584,0.737334 -4.2707,6.709334 -1.1014,5.753334 -0.019,0.478666 0.344,0.752 1.1214,0.781333 11.1586,-1.054667 21.732,1.893333 29.2773,10.549333 7.1253,8.158666 7.8533,18.481333 4.7907,28.525333 -3.1174,10.215999 -8.924,19.450666 -14.556,28.4426656 -6.512,10.4013331 -10.996,15.5653334 -17.1214,26.1959994 -7.2653,12.62 -13.42,-12.065333 -13.7813,-13.8719997 -2.5267,-12.9279997 -5.9973,-25.6746663 -10.0813,-38.1879993 -3.756,-11.527999 -10.2987,-27.317332 -24.476,-28.062666 -5.924,-6.265333 -12.48,3.56 -14.088,8.661333 -2.1347,6.778667 -3.1974,13.972 -5.0947,20.846667 -3.3147,12.054666 -8.7333,24.5186656 -15.6027,34.929332 -9.3666,14.188 -16.2026,15.612 -23.536,-0.7986667 -2.016,-4.5213332 -4.2106,-8.9613331 -6.4093,-13.393333 -3.4893,-7.0186663 -6.636,-14.1746663 -10.0213,-21.2399993 -3.3734,-7.057333 -7.252,-14.474666 -13.2387,-19.685333 -2.6493,-1.484 -5.4187,-2.522667 -8.4893,-2.497333 -6.9254,-2.773333 -12.024,4.42 -14.7734,9.649333 -3.408,6.489333 -5.8186,13.513333 -8.992,20.129333 -4.3586,9.051999 -9.0853,17.9146659 -13.7506,26.807999 -4.9267,9.401333 -10.6014,32.899999 -23.2974,34.181332 -18.3253,1.841334 -33.252,-45.8279984 -38.9933,-57.967998 -3.7307,-7.890667 -7.6147,-15.742666 -12.3733,-23.075999 -3.3107,-5.090667 -9.16,-14.265333 -16.1774,-8.341334 -8.5586,3.258667 -23.144,34.6 -32.1413,52.5839991 -4.8013,9.6119999 -14.836,31.4759989 -23.7733,31.7653329 -10.544,0.344 -15.1427,-17.426667 -19.1027,-25.2439997 -5.6947,-11.2506664 -10.596,-22.5706663 -14.1307,-34.6853323 -0.664,-2.257333 -1.348,-4.636 -2.1746,-6.98 -3.9387,-6.4 -9.7787,-11.148 -18.316,-7.942667 -4.036,1.516 -7.2307,4.070667 -10.212,6.930667 -1.14,1.457333 -2.2667,2.926667 -3.3947,4.336 -12.6507,15.803999 -24.9733,32.2159991 -39.0307,46.817332 -4.5053,4.68 -15.2879,18.218666 -21.7626,19.669333 -10.7013,2.408 -18.9667,-23.492 -21.748,-31.3573327 -3.7987,-10.7359997 -8.0187,-21.7186663 -8.972,-33.1533323 -0.9533,-4.964 -0.3013,-13.637333 -2.948,-17.388 -10.3733,-14.677333 -28.6053,9.690667 -36.0147,16.328 -5.3173,4.773333 -10.4253,9.756 -15.3333,14.942666 -7.716,8.1693333 -15.0587,21.9853329 -27.0107,24.404 -6.8093,1.382666 -9.7506,-3.8440004 -12.736,-8.9666669 -3.1866,-5.4653332 -6.3,-10.9453331 -9.6733,-16.2986661 -3.8147,-6.057333 -7.524,-12.149333 -11.0413,-18.385333 -0.089,-0.09733 -0.1974,-0.174667 -0.2774,-0.305333 -1.9906,-3.336 -4.0666,-6.674667 -5.3933,-10.24 -0.3227,-0.637333 -0.668,-1.254667 -0.9827,-1.892 0.072,-0.164 0.1494,-0.352 0.2267,-0.537333 -0.4773,-1.877334 -0.7373,-3.830667 -0.584,-5.898667 0.48,-6.686666 -4.8787,-8.736 -9.2173,-4.322666 -2.132,2.169333 -3.7267,4.523999 -4.9254,7.305333 -0.1533,0.353333 -0.4093,0.565333 -0.6946,0.697333 -7.0014,14.648 -13.7254,29.515999 -19.2094,44.7679989 -1.164,2.54933326 -2.352,5.0893332 -3.5386,7.6279998 -1.5867,3.3906666 -15.8827,-12.109333 -16.8814,-13.437333 -5.9226,-7.8173327 -11.6146,-15.7893327 -17.9506,-23.2893327 -5.5814,-6.593333 -12.3574,-13.853333 -13.9614,-22.671999 -4.1306,-22.684 22.268,-17.494667 34.816,-12.688 -3.28,-9.566667 -7.8866,-18.596 -19.2386,-18.989333 -12.052,-0.424 -25.1734,7.977333 -30.2347,18.810666 -8.6493,18.513333 7.7667,36.489333 19.8,48.674666 15.288,15.4733326 29.056,29.762666 39.1627,49.391998 25.4893,49.513332 43.584,102.318667 64.716,153.733327 35.6413,86.72133 67.236,174.61333 95.392,264.192 8.652,27.51613 17.0866,55.36666 27.8653,82.14013 2.944,7.3068 4.3293,15.8 8.7107,22.42653 3.0586,4.61355 8.8346,6.92031 14.0799,4.81355 5.5854,-2.22658 9.6347,-7.64008 12.8027,-12.50675 6.9973,-10.74693 11.7027,-23 15.896,-35.05373 2.3947,4.25373 4.892,8.44013 7.5213,12.56053 5.0707,14.15987 12.1734,29.90619 25.764,37.79995 6.316,3.66666 14.5227,5.87968 21.648,3.46666 8.4347,-2.8401 14.7974,-10.30677 19.5694,-17.49328 3.2253,-1.41346 5.5,-5.30666 7.4653,-8.0672 2.288,-3.21293 4.364,-6.5728 6.3347,-9.9864 5.3973,10.08027 11.1573,20.34694 19.616,28.22656 6.8946,6.41355 15.5573,11.78699 25.0426,7.97344 8.3787,-3.35989 14.7814,-10.95989 19.796,-18.1864 5.508,-7.93333 10.064,-16.73333 13.1307,-25.89333 3.156,-2.5604 5.6013,0.10627 8.2907,2.37293 3.3306,6.35987 6.984,12.5068 10.744,18.6 3.0426,4.9604 6.4573,10.49374 11.7866,13.2667 4.1734,3.68021 10.996,7.12032 16.1347,3.21354 2.8707,-2.17344 4.228,-5.85317 4.96,-9.26664 1.2293,-5.7068 2.4707,-11.4136 3.7307,-17.1068 4.904,-22.17346 10.072,-44.27346 15.644,-66.28119 20.7706,-82.03214 48.8186,-161.43613 83.256,-238.7188 21.724,-48.756 44.94,-97.07066 71.3773,-143.461328 18.1187,-31.799999 37.5373,-62.849332 54.692,-95.201331 3.816,-7.197333 7.3293,-14.590666 9.872,-22.342666 2.3707,-7.217333 4.6253,-15.472 3.7533,-23.127999"
         style="fill:#c7c8c8;fill-opacity:1;fill-rule:nonzero;stroke:none;stroke-width:0.133333" />
      <path
         id="path24"
         d="m 2638.7529,-84.329127 c 1,0.286667 1.5853,0.450667 1.8,0.510667 -0.256,-0.068 -0.948,-0.270667 -1.8,-0.510667"
         style="fill:#dedede;fill-opacity:1;fill-rule:nonzero;stroke:none;stroke-width:0.133333" />
      <path
         id="path25"
         d="m 2637.9662,-84.553127 c 0.272,0.076 0.54,0.148 0.7867,0.224 -0.2387,-0.068 -0.4934,-0.142667 -0.7867,-0.224"
         style="fill:#dedede;fill-opacity:1;fill-rule:nonzero;stroke:none;stroke-width:0.133333" />
      <path
         id="path26"
         d="m 2637.6209,-84.651794 c 0.128,0.03333 0.2253,0.06 0.3453,0.09867 l -0.3453,-0.09867"
         style="fill:#dedede;fill-opacity:1;fill-rule:nonzero;stroke:none;stroke-width:0.133333" />
      <path
         id="path27"
         d="m 2640.5529,-83.81846 c 0.14,0.04133 0.1306,0.04133 0,0"
         style="fill:#dedede;fill-opacity:1;fill-rule:nonzero;stroke:none;stroke-width:0.133333" />
      <path
         id="path28"
         d="m 2635.1542,-85.35846 c -0.604,-0.173334 -1.1307,-0.322667 -1.3987,-0.4 0.2254,0.06667 0.7187,0.208 1.3987,0.4"
         style="fill:#dedede;fill-opacity:1;fill-rule:nonzero;stroke:none;stroke-width:0.133333" />
      <path
         id="path29"
         d="m 2114.4889,-39.938462 c 0,0 -1.4347,0.166667 -3.744,1.021334 -2.3347,0.782666 -5.436,2.462666 -8.8213,4.874666 -1.6814,1.234667 -3.4414,2.645334 -5.14,4.330667 -1.6494,1.62 -3.4187,3.628 -5.2894,5.486666 -3.604,3.888 -7.4373,8.046667 -11.2773,12.196 -3.9093,4.116 -7.728,8.3199999 -11.4387,12.13999983 -3.6493,3.87733327 -7.2186,7.35466647 -10.1733,10.42933317 -2.9693,3.057333 -5.5947,5.474666 -7.3547,7.234666 -1.8213,1.713334 -2.86,2.693334 -2.86,2.693334 0,0 0.8227,-1.174667 2.336,-3.152 1.5454,-1.957334 3.6507,-4.841333 6.3814,-8.1240001 2.7226,-3.2839999 5.8426,-7.1666665 9.332,-11.2039997 3.492,-4.0333332 7.2786,-8.2786662 11.144,-12.4626662 3.8706,-4.149333 7.86,-8.294667 11.6973,-12.04 1.9653,-1.833333 3.7653,-3.56 5.7507,-5.184 1.9266,-1.6 3.9106,-2.917333 5.768,-4.054666 3.7533,-2.272 7.296,-3.333334 9.7533,-3.844 2.4893,-0.505334 3.936,-0.341334 3.936,-0.341334"
         style="fill:#ffffff;fill-opacity:1;fill-rule:nonzero;stroke:none;stroke-width:0.133333" />
      <path
         id="path30"
         d="m 2233.6462,-34.091795 c 0,0 -0.4987,-0.052 -1.392,0.06667 -0.8933,0.144 -2.1773,0.505333 -3.6413,1.297333 -1.476,0.778667 -3.1054,2.016 -4.6867,3.701333 -1.6293,1.658667 -3.0667,3.861333 -4.6747,6.213333 -1.5786,2.505334 -3.2973,5.142667 -5.2613,7.934667 -1.9573,2.749333 -4.008,5.6479997 -6.292,8.5279997 -4.4707,5.81866648 -9.464,11.841333 -14.5733,17.7639993 -10.2814,11.788 -21.02,23.148 -30.0093,30.858666 -1.1734,0.932 -2.232,1.874667 -3.6454,2.593333 -1.272,0.510667 -2.4586,0.885334 -3.6626,1.24 -0.5987,0.161334 -1.2294,0.232 -1.7987,0.338667 -0.604,0.01867 -1.204,-0.02667 -1.752,-0.076 -0.54,-0.194667 -1.056,-0.369333 -1.52,-0.569333 -0.3987,-0.297334 -0.7773,-0.586667 -1.1387,-0.86 -1.3026,-1.216 -2.012,-2.382667 -2.4586,-3.182667 -0.4734,-0.785333 -0.728,-1.208 -0.728,-1.208 0,0 0.308,0.38 0.8853,1.098667 0.532,0.732 1.4453,1.74 2.7307,2.742666 1.28,1.112 3.2666,1.361334 5.376,0.44 1.0346,-0.426666 2.2253,-0.94 3.3706,-1.549333 0.908,-0.609333 1.9427,-1.544 2.9934,-2.513333 4.1693,-4.002667 8.6653,-9.145333 13.5479,-14.549333 4.8454,-5.453333 10.02,-11.262667 15.0907,-17.1586664 5.144,-5.8439999 10.1493,-11.7999997 14.8293,-17.3879996 2.3094,-2.812 4.5387,-5.529333 6.656,-8.112 2.068,-2.56 3.9734,-5.12 5.6654,-7.474666 0.9333,-1.173334 1.8266,-2.298667 2.676,-3.366667 0.856,-1.06 1.924,-1.864 2.7773,-2.716 1.8427,-1.593333 3.6893,-2.708 5.3107,-3.364 1.612,-0.685333 3.0066,-0.821333 3.9213,-0.857333 0.9307,0.008 1.404,0.128 1.404,0.128"
         style="fill:#ffffff;fill-opacity:1;fill-rule:nonzero;stroke:none;stroke-width:0.133333" />
      <path
         id="path31"
         d="m 2085.2622,108.44687 c 0,0 0.5347,0.42933 1.5214,1.04933 0.98,0.62267 2.4213,1.44267 4.2,2.02133 0.8933,0.268 1.8533,0.51734 2.8653,0.56934 1.0133,0.10933 2.0507,-0.0587 3.0973,-0.23867 1.0427,-0.27067 2.0507,-0.732 3.0534,-1.292 0.464,-0.30933 1.0386,-0.64267 1.4213,-0.92667 l 1.5573,-1.268 c 1.0587,-0.808 2.1187,-1.62533 3.1654,-2.42533 1.036,-0.80667 2.1346,-1.51867 3.032,-2.33067 1.8786,-1.57066 3.7386,-2.932 5.3226,-4.155995 3.124,-2.489333 5.384,-4.041333 5.384,-4.041333 0,0 -1.3706,2.374666 -3.9466,5.517328 -1.276,1.58134 -2.9534,3.3 -4.752,5.13334 -1.788,1.872 -3.9347,3.39866 -5.9894,5.136 l -1.5906,1.21066 c -0.6974,0.48934 -1.2894,0.79867 -1.936,1.19467 -1.3054,0.70667 -2.748,1.11467 -4.16,1.35733 -1.4374,0.16134 -2.8414,0.104 -4.092,-0.23466 -1.276,-0.24534 -2.356,-0.80667 -3.296,-1.344 -1.872,-1.09067 -3.0667,-2.41067 -3.816,-3.35334 -0.74,-0.95866 -1.0414,-1.57866 -1.0414,-1.57866"
         style="fill:#ffffff;fill-opacity:1;fill-rule:nonzero;stroke:none;stroke-width:0.133333" />
      <path
         id="path32"
         d="m 1998.3316,-52.678461 c 0,0 -0.8934,0.86 -2.1547,2.573333 -1.284,1.697333 -2.968,4.229333 -4.5293,7.494667 -0.8547,1.590666 -1.6494,3.377333 -2.3814,5.317333 -0.8733,1.868 -1.464,3.988 -2.1866,6.109333 -1.408,4.330667 -2.8107,9.052 -4.3947,13.669333 -3.1093,9.2839997 -6.5333,18.45333281 -9.3533,25.2479993 -1.3747,3.4106667 -2.6934,6.1973327 -3.544,8.1666667 -0.876,1.962666 -1.4374,3.065333 -1.4374,3.065333 0,0 0.2307,-1.216 0.7414,-3.3 0.5306,-2.081333 1.1893,-5.082666 2.184,-8.6226663 1.9333,-7.0933332 4.8293,-16.4479996 8.0453,-25.6919997 0.82,-2.305333 1.6413,-4.609333 2.4507,-6.877333 0.8626,-2.258666 1.6146,-4.482666 2.5213,-6.630666 0.9147,-2.156 1.6853,-4.276 2.7307,-6.164 0.9573,-1.914667 1.9666,-3.666667 3.016,-5.218667 0.9613,-1.598666 2.1146,-2.898666 3.024,-4.097333 0.9906,-1.145333 1.872,-2.126667 2.6506,-2.874667 1.564,-1.508 2.6174,-2.166666 2.6174,-2.166666"
         style="fill:#ffffff;fill-opacity:1;fill-rule:nonzero;stroke:none;stroke-width:0.133333" />
      <path
         id="path33"
         d="m 1915.2902,-75.009127 c 0,0 -0.8706,0.781333 -2.2293,2.265333 -1.36,1.474667 -3.1253,3.761333 -4.644,6.718666 -1.544,2.948 -2.5733,6.696 -2.3053,10.666667 0.085,0.961333 0.276,2.050666 0.4546,2.928 0.2987,1.049333 0.524,2.241333 0.932,3.161333 0.6507,1.934667 1.676,4.002667 2.6974,5.965333 2.1093,3.961333 4.6533,7.748 7.1626,11.209333 2.5147,3.476 5.02,6.614667 7.2014,9.298667 2.1906,2.672 4.0373,4.904 5.4013,6.396 1.3493,1.521333 2.1187,2.390666 2.1187,2.390666 0,0 -3.8787,-2.614666 -8.9787,-7.429333 -2.544,-2.409333 -5.3853,-5.365333 -8.1973,-8.750666 -2.8027,-3.390667 -5.576,-7.226667 -7.852,-11.424 -1.1734,-2.101333 -2.1267,-4.249333 -2.9134,-6.64 -0.464,-1.196 -0.6306,-2.245333 -0.9186,-3.344 -0.2387,-1.305333 -0.3334,-2.425333 -0.376,-3.62 -0.084,-4.748 1.608,-8.984 3.7013,-11.926666 2.0333,-3.029333 4.4027,-4.901333 6.0227,-6.152 1.6546,-1.229333 2.7226,-1.713333 2.7226,-1.713333"
         style="fill:#ffffff;fill-opacity:1;fill-rule:nonzero;stroke:none;stroke-width:0.133333" />
      <path
         id="path34"
         d="m 2201.7209,143.52287 c 0,0 1.192,0.692 2.8,1.452 0.796,0.40133 1.736,0.74533 2.684,1.08666 0.9773,0.25734 1.9693,0.55734 2.9986,0.59067 1.02,0.144 2.0507,0.0267 3.072,-0.044 0.4934,-0.12267 0.9947,-0.17733 1.488,-0.24267 0.4894,-0.11466 0.9534,-0.224 1.3827,-0.32266 0.8973,-0.156 1.6253,-0.44267 2.1987,-0.544 0.5613,-0.128 0.9106,-0.17734 0.9106,-0.17734 0,0 -0.1613,0.28934 -0.5106,0.768 -0.3614,0.448 -0.8254,1.196 -1.6507,1.78667 -0.7533,0.69333 -1.8,1.308 -3.0333,1.80533 -0.6374,0.16934 -1.3054,0.40267 -2.008,0.5 -0.7094,0.0227 -1.4414,0.13734 -2.172,0.052 -0.728,-0.10133 -1.4467,-0.216 -2.128,-0.45866 -0.7054,-0.16134 -1.292,-0.568 -1.896,-0.852 -1.128,-0.71334 -2.0547,-1.52534 -2.6547,-2.36934 -1.28,-1.61733 -1.4813,-3.03066 -1.4813,-3.03066"
         style="fill:#ffffff;fill-opacity:1;fill-rule:nonzero;stroke:none;stroke-width:0.133333" />
      <path
         id="path35"
         d="m 2145.5142,210.9682 c 0,0 1.2387,0.94 2.9187,2.04133 0.8627,0.52267 1.8293,1.11467 2.896,1.51334 0.5053,0.26266 1.0893,0.34533 1.624,0.528 0.5573,0.128 1.12,0.256 1.7067,0.25066 1.144,0.16934 2.328,-0.0507 3.488,-0.18266 0.5706,-0.16667 1.14,-0.276 1.6973,-0.39067 0.5533,-0.16667 1.072,-0.32533 1.552,-0.464 1.012,-0.252 1.8173,-0.62667 2.4467,-0.77867 0.62,-0.184 1.0026,-0.27333 1.0026,-0.27333 0,0 -0.1893,0.32267 -0.5813,0.852 -0.4173,0.49733 -0.944,1.31733 -1.8507,2 -0.8386,0.78133 -1.9866,1.48667 -3.348,2.08533 -0.7146,0.20134 -1.4373,0.524 -2.2373,0.628 -0.808,0.0573 -1.624,0.21067 -2.4627,0.10134 -1.668,-0.11467 -3.2933,-0.732 -4.5466,-1.57734 -1.2934,-0.82133 -2.208,-1.89333 -2.8454,-2.852 -1.2893,-1.92933 -1.46,-3.48133 -1.46,-3.48133"
         style="fill:#ffffff;fill-opacity:1;fill-rule:nonzero;stroke:none;stroke-width:0.133333" />
      <path
         id="path36"
         d="m 2104.1476,271.2202 c 0,0 1.084,1.068 2.7093,2.66133 0.796,0.76533 1.6893,1.63333 2.68,2.464 0.4813,0.43467 1.02,0.80667 1.54,1.18667 0.4933,0.43866 1.0813,0.69333 1.6213,1.03733 0.5614,0.24667 1.096,0.60933 1.68,0.73867 0.5694,0.14666 1.1214,0.40133 1.7014,0.41466 0.5693,0.10934 1.14,0.13334 1.696,0.096 0.5613,0.024 1.108,-0.0467 1.6173,-0.148 0.4973,-0.12266 1.0253,-0.10133 1.4387,-0.25066 0.4426,-0.12667 0.82,-0.23334 1.1346,-0.32 0.6547,-0.156 1.064,-0.23734 1.064,-0.23734 0,0 -0.2213,0.31867 -0.6813,0.84134 -0.46,0.52933 -1.128,1.31066 -2.224,1.89866 -0.5227,0.352 -1.124,0.688 -1.8467,0.85467 -0.7026,0.24667 -1.472,0.46267 -2.3093,0.42933 -0.8387,0.0733 -1.6933,-0.016 -2.548,-0.23733 -0.864,-0.172 -1.6427,-0.588 -2.4467,-0.924 -1.4626,-0.90667 -2.7946,-1.964 -3.708,-3.19067 -0.9746,-1.176 -1.652,-2.40533 -2.1093,-3.50533 -0.9493,-2.176 -1.0093,-3.80933 -1.0093,-3.80933"
         style="fill:#ffffff;fill-opacity:1;fill-rule:nonzero;stroke:none;stroke-width:0.133333" />
      <path
         id="path37"
         d="m 2198.1222,321.1322 c 0,0 1.0813,0.65866 2.6987,1.64 0.7866,0.44 1.6533,0.93733 2.5853,1.368 0.944,0.39733 1.8973,0.84 2.9013,1.012 0.9734,0.31866 1.9814,0.31866 2.9654,0.37066 0.4933,0.0147 0.9773,-0.068 1.4573,-0.0733 0.4867,0.005 0.9293,-0.148 1.3707,-0.18267 0.8893,-0.0907 1.628,-0.31466 2.1906,-0.40133 0.5654,-0.096 0.9187,-0.14 0.9187,-0.14 0,0 -0.1747,0.28667 -0.5413,0.74933 -0.3734,0.44267 -0.884,1.14934 -1.752,1.688 -0.424,0.276 -0.8547,0.68 -1.428,0.86534 -0.5534,0.21066 -1.132,0.53866 -1.796,0.632 -0.664,0.0813 -1.3574,0.34133 -2.08,0.24 -0.7187,-0.024 -1.4467,-0.0653 -2.1574,-0.25334 -1.4146,-0.35066 -2.708,-1.028 -3.7346,-1.836 -1.0374,-0.79866 -1.8027,-1.728 -2.3467,-2.57733 -1.1013,-1.70533 -1.252,-3.10133 -1.252,-3.10133"
         style="fill:#ffffff;fill-opacity:1;fill-rule:nonzero;stroke:none;stroke-width:0.133333" />
      <path
         id="path38"
         d="m 2199.0209,139.92287 c 0,0 1.0586,1.04266 2.6413,2.60266 1.5227,1.50667 3.548,3.35067 5.692,4.492 0.548,0.19467 1.0627,0.58267 1.6333,0.656 0.5574,0.16134 1.0974,0.34934 1.6627,0.352 1.1053,0.14534 2.2453,0.0853 3.24,-0.11466 0.4907,-0.11734 1.0093,-0.10267 1.4093,-0.264 0.4334,-0.11467 0.808,-0.216 1.1147,-0.30134 0.6413,-0.156 1.0467,-0.22933 1.0467,-0.22933 0,0 -0.2174,0.31467 -0.66,0.828 -0.2254,0.26 -0.4974,0.57867 -0.8427,0.91467 -0.3187,0.38 -0.8027,0.63466 -1.3053,0.976 -0.5067,0.33066 -1.068,0.70533 -1.7734,0.87466 -0.6853,0.22934 -1.4173,0.51067 -2.2413,0.48934 -0.808,0.0813 -1.6587,0.0733 -2.5027,-0.15867 -0.8666,-0.10933 -1.62,-0.53333 -2.436,-0.83333 -0.6986,-0.46267 -1.464,-0.86667 -2.0546,-1.41867 -0.6427,-0.50267 -1.1574,-1.09867 -1.6347,-1.67733 -0.9573,-1.15067 -1.616,-2.36934 -2.0587,-3.44 -0.904,-2.148 -0.9306,-3.748 -0.9306,-3.748"
         style="fill:#ffffff;fill-opacity:1;fill-rule:nonzero;stroke:none;stroke-width:0.133333" />
      <path
         id="path39"
         d="m 2050.1862,161.95753 c 0,0 0.8934,0.75467 2.2334,1.90134 1.272,1.04133 2.8613,2.36933 4.432,2.84533 0.7613,0.37333 1.5786,0.336 2.412,0.39333 0.8333,-0.0573 1.6973,-0.16933 2.48,-0.38266 0.8093,-0.128 1.468,-0.41867 1.9906,-0.52534 0.5147,-0.128 0.8414,-0.188 0.8414,-0.188 0,0 -0.128,0.28667 -0.404,0.752 -0.3054,0.44267 -0.672,1.18 -1.42,1.772 -0.676,0.67867 -1.6814,1.296 -2.9214,1.692 -0.648,0.084 -1.32,0.38267 -2.0386,0.256 -0.728,-0.0187 -1.4374,-0.13333 -2.1267,-0.38133 -0.7013,-0.208 -1.2773,-0.624 -1.868,-0.96267 -0.5347,-0.40666 -1.028,-0.852 -1.42,-1.32266 -0.8293,-0.91734 -1.324,-1.92534 -1.6627,-2.79734 -0.656,-1.75066 -0.528,-3.052 -0.528,-3.052"
         style="fill:#ffffff;fill-opacity:1;fill-rule:nonzero;stroke:none;stroke-width:0.133333" />
      <path
         id="path40"
         d="m 2328.9742,142.1682 c 0,0 1.4747,1.16133 3.628,2.54933 1.0973,0.66667 2.36,1.38 3.7333,1.94267 0.6987,0.25067 1.4134,0.50533 2.1414,0.656 0.7226,0.196 1.4653,0.29733 2.2106,0.27867 0.7414,0.152 1.48,-0.0827 2.2214,-0.0933 0.736,-0.17466 1.4626,-0.34933 2.164,-0.51333 0.6773,-0.30933 1.3666,-0.54933 2.0346,-0.792 0.624,-0.33067 1.228,-0.65867 1.8067,-0.94 1.192,-0.51733 2.0413,-1.236 2.7653,-1.58533 0.6894,-0.388 1.1227,-0.60134 1.1227,-0.60134 0,0 -0.2,0.408 -0.6173,1.10667 -0.4587,0.65067 -0.956,1.76 -1.9987,2.71067 -0.4973,0.5 -1.024,1.068 -1.6627,1.588 -0.6813,0.46933 -1.416,0.97733 -2.212,1.43066 -0.856,0.35334 -1.7613,0.76267 -2.7226,1.00534 -0.9947,0.096 -2.008,0.40266 -3.036,0.276 -1.0427,-0.0347 -2.048,-0.22667 -3.008,-0.52934 -0.9707,-0.232 -1.8174,-0.76 -2.6334,-1.18266 -1.5813,-0.95467 -2.8026,-2.13467 -3.692,-3.236 -1.7813,-2.216 -2.2453,-4.07067 -2.2453,-4.07067"
         style="fill:#ffffff;fill-opacity:1;fill-rule:nonzero;stroke:none;stroke-width:0.133333" />
      <path
         id="path41"
         d="m 2276.8115,42.348203 c 0,0 0.336,0.333333 1.024,0.877333 0.6854,0.538667 1.7587,1.268 3.2,1.969334 1.4334,0.678666 3.3507,1.282666 5.444,0.986666 2.1067,-0.281333 4.1267,-1.713333 5.7974,-3.734666 0.384,-0.524 0.7786,-1.054667 1.1786,-1.598667 0.3574,-0.644 0.7187,-1.294666 1.0947,-1.953333 0.7387,-1.328 1.508,-2.7 2.296,-4.104 1.5827,-2.82 3.224,-5.802667 5.0147,-8.830666 3.368,-6.146667 6.968,-12.704 10.5666,-19.2613333 3.6707,-6.53333321 7.3414,-13.0666664 10.7787,-19.1919997 1.7653,-3.041333 3.4653,-5.989333 5.0773,-8.776 0.8134,-1.396 1.604,-2.753333 2.3667,-4.062666 0.7427,-1.322667 1.4667,-2.598667 2.156,-3.822667 2.8627,-4.950666 6.1627,-8.622666 9.0893,-10.368 1.4347,-0.942666 2.8507,-1.046666 3.7174,-1.103999 0.8773,0.156 1.3453,0.242666 1.3453,0.242666 0,0 -0.4627,-0.01867 -1.3413,-0.04667 -0.8454,0.174666 -2.0787,0.489333 -3.3387,1.499999 -2.6027,1.88 -5.2053,5.812 -7.6893,10.732 -1.12,2.449333 -2.5947,5.348 -3.9894,8.176 -1.4346,2.893333 -2.9573,5.938667 -4.6066,9.042666 -3.264,6.2440003 -6.7614,12.8666668 -10.436,19.4533333 -3.7254,6.5466667 -7.392,13.1346667 -11.0254,19.1706657 -1.8493,2.996 -3.7213,5.830667 -5.4786,8.537334 -0.876,1.350666 -1.7307,2.666666 -2.5547,3.942666 -0.4133,0.632 -0.8227,1.257333 -1.2187,1.872 -0.5053,0.604 -1.004,1.198667 -1.488,1.781333 -1.9946,2.202667 -4.6706,3.688 -7.184,3.732 -2.5053,0.068 -4.484,-0.844 -5.908,-1.702666 -1.4386,-0.876 -2.3733,-1.813334 -2.9946,-2.438667 -0.608,-0.645333 -0.8934,-1.02 -0.8934,-1.02"
         style="fill:#ffffff;fill-opacity:1;fill-rule:nonzero;stroke:none;stroke-width:0.133333" />
      <path
         id="path42"
         d="m 2397.3169,47.74687 c 0,0 1.692,1.306666 5.092,2.408 1.684,0.544 3.8626,0.917333 6.2346,0.56 2.3694,-0.349334 4.8414,-1.573334 6.9467,-3.612 0.5747,-0.44 1.0173,-1.074667 1.5147,-1.658667 0.5053,-0.573333 0.9906,-1.182667 1.3906,-1.890667 0.408,-0.674666 0.9147,-1.388 1.2547,-2.046666 0.3787,-0.778667 0.752,-1.578667 1.14,-2.377333 1.552,-3.212 3.1907,-6.589334 4.8867,-10.092 1.7533,-3.468 3.5093,-7.08 5.148,-10.793333 1.684,-3.698667 3.3986,-7.448 5.1133,-11.2013333 3.5387,-7.43999986 6.92,-15.0026663 10.1987,-22.0413327 3.2506,-7.044 6.496,-13.565333 9.0146,-19.2 2.5654,-5.786666 6.172,-10.146666 9.6934,-11.659999 0.8466,-0.429334 1.72,-0.486667 2.4253,-0.613334 0.732,0.08 1.3493,0.056 1.82,0.205334 0.9267,0.314666 1.42,0.484 1.42,0.484 0,0 -0.5053,-0.101334 -1.4533,-0.294667 -0.4694,-0.08 -1.068,0.02667 -1.7454,0.03467 -0.6453,0.226666 -1.4186,0.341333 -2.164,0.817333 -3.1266,1.650667 -5.972,6.153333 -8.12,11.794666 -1.0893,2.953334 -2.3866,6.030667 -3.6973,9.358667 -1.3307,3.310666 -2.756,6.789333 -4.292,10.352 -3.0067,7.1719993 -6.3467,14.7599991 -9.8627,22.3253323 -1.7666,3.7626667 -3.532,7.5319997 -5.276,11.2373327 -1.6706,3.752 -3.6066,7.268 -5.44,10.685333 -1.8626,3.410667 -3.6626,6.713334 -5.368,9.833333 -0.4293,0.778667 -0.856,1.544 -1.272,2.306667 -0.5053,0.841333 -1.0413,1.486667 -1.544,2.218667 -0.4773,0.732 -1.0546,1.374666 -1.6506,1.984 -0.5907,0.612 -1.1147,1.264 -1.7987,1.742666 -2.4627,2.182667 -5.4907,3.317334 -8.1507,3.429334 -2.6706,0.136 -4.916,-0.502667 -6.6066,-1.234667 -1.7094,-0.718667 -2.9,-1.557333 -3.6907,-2.116 -0.7827,-0.589333 -1.1613,-0.945333 -1.1613,-0.945333"
         style="fill:#ffffff;fill-opacity:1;fill-rule:nonzero;stroke:none;stroke-width:0.133333" />
      <path
         id="path43"
         d="m 2505.2355,25.712204 c 0,0 1.196,1.267999 3.8374,2.398666 1.3106,0.549333 3.0106,0.986667 4.9213,0.822667 1.9053,-0.166667 3.9547,-0.932 5.8827,-2.306667 0.9266,-0.734666 1.9226,-1.472 2.7733,-2.453333 0.42,-0.474667 0.964,-0.937333 1.292,-1.429333 0.4267,-0.552 0.86,-1.12 1.2933,-1.690667 1.8467,-2.249333 3.4294,-4.768 5.1,-7.302667 1.6894,-2.538666 3.2174,-5.4053327 4.8667,-8.1973326 1.532,-2.8773333 3.16,-5.76266657 4.564,-8.7706665 1.536,-2.9373332 2.8933,-5.9639998 4.2627,-8.9266669 1.2626,-3.002666 2.6253,-5.917333 3.6746,-8.815999 2.1574,-5.809334 4.072,-11.418667 6.2067,-16.046667 2.0627,-4.658666 4.704,-8.231999 7.1667,-10.018666 1.268,-0.858667 2.4213,-1.228 3.2026,-1.348 0.788,-0.068 1.2094,-0.106667 1.2094,-0.106667 0,0 -0.4054,0.104 -1.1614,0.298667 -0.744,0.221333 -1.7306,0.794667 -2.808,1.701333 -1.0293,0.981334 -2.084,2.361334 -3.0493,4.101334 -0.932,1.76 -1.804,3.841333 -2.6933,6.150666 -0.872,2.308 -1.668,4.885333 -2.4707,7.630667 -0.8213,2.751999 -1.548,5.677333 -2.616,8.689333 -1,3.034666 -2.188,6.084 -3.4747,9.149333 -1.3573,3.0386664 -2.7026,6.1346663 -4.2333,9.1453329 -1.468,3.0359999 -3.164,5.9693332 -4.7627,8.8826664 -1.712,2.8679997 -3.412,5.6413337 -5.276,8.2679997 -1.8453,2.658667 -3.7346,5.117333 -5.7,7.185333 -0.48,0.538667 -0.948,1.070667 -1.412,1.593334 -0.5146,0.622666 -1.0666,1.018666 -1.5866,1.524 -1.004,0.986666 -2.1827,1.746666 -3.2747,2.478666 -2.2507,1.430667 -4.7813,2.04 -6.9467,1.945333 -2.1866,-0.07733 -3.96,-0.786666 -5.2573,-1.530666 -1.3187,-0.74 -2.1733,-1.562667 -2.7347,-2.109334 -0.5493,-0.575999 -0.796,-0.911999 -0.796,-0.911999"
         style="fill:#ffffff;fill-opacity:1;fill-rule:nonzero;stroke:none;stroke-width:0.133333" />
      <path
         id="path44"
         d="m 2433.2889,125.98287 c 0,0 1.4506,0.98266 3.5866,1.86 1.0667,0.42933 2.3014,0.84133 3.628,1.016 0.6507,0.16666 1.348,0.0987 2.0294,0.17866 0.688,-0.0173 1.3946,-0.0333 2.088,-0.15866 0.6986,-0.14267 1.4173,-0.148 2.0986,-0.41867 0.6747,-0.24267 1.4027,-0.308 2.0414,-0.62533 0.6413,-0.29467 1.3266,-0.448 1.9346,-0.732 0.5907,-0.29867 1.188,-0.54934 1.7454,-0.77867 1.1093,-0.46133 1.9893,-0.984 2.6866,-1.24933 0.6774,-0.29467 1.0934,-0.44 1.0934,-0.44 0,0 -0.208,0.36933 -0.6334,0.984 -0.4466,0.59066 -1.0173,1.53333 -1.9653,2.39333 -0.9147,0.91067 -2.068,1.90533 -3.5347,2.69733 -0.6946,0.45067 -1.5146,0.77867 -2.348,1.07067 -0.8173,0.36 -1.748,0.46133 -2.6413,0.664 -1.8293,0.188 -3.748,0.10133 -5.3853,-0.524 -1.656,-0.52533 -3.0027,-1.44533 -3.9694,-2.35867 -1.9773,-1.83066 -2.4546,-3.57866 -2.4546,-3.57866"
         style="fill:#ffffff;fill-opacity:1;fill-rule:nonzero;stroke:none;stroke-width:0.133333" />
      <path
         id="path45"
         d="m 2255.2275,250.53486 c 0,0 1.1054,0.84134 2.6427,1.66667 0.7653,0.41733 1.6507,0.8 2.572,1.04933 0.4467,0.17467 0.9453,0.18534 1.4173,0.28667 0.476,0.0707 0.9734,0.076 1.468,0.06 0.5027,-0.06 1.008,0.016 1.5187,-0.13733 0.4973,-0.14134 1.0293,-0.10134 1.5267,-0.30267 1.0133,-0.224 1.9773,-0.56 2.8626,-0.81467 0.876,-0.25333 1.608,-0.55466 2.1734,-0.69066 0.5573,-0.148 0.9066,-0.216 0.9066,-0.216 0,0 -0.1533,0.29733 -0.4733,0.792 -0.344,0.46666 -0.7867,1.208 -1.5307,1.87466 -0.7226,0.70134 -1.6426,1.464 -2.832,2.02134 -0.5626,0.32266 -1.2293,0.552 -1.9106,0.73466 -0.664,0.23067 -1.4294,0.23334 -2.1614,0.33334 -1.48,-0.0347 -3.024,-0.3 -4.224,-1.04 -0.6373,-0.276 -1.1226,-0.76534 -1.6026,-1.14267 -0.4427,-0.43467 -0.8294,-0.85467 -1.1147,-1.308 -1.216,-1.72133 -1.2387,-3.16667 -1.2387,-3.16667"
         style="fill:#ffffff;fill-opacity:1;fill-rule:nonzero;stroke:none;stroke-width:0.133333" />
      <path
         id="path46"
         d="m 2368.0902,226.25353 c 0,0 0.944,0.63334 2.352,1.592 1.348,0.864 3.0027,1.73467 4.5307,1.79467 0.3826,0.0933 0.7866,0 1.1826,0.0173 0.3947,-0.14 0.824,-0.088 1.232,-0.22666 0.4,-0.16134 0.8307,-0.23467 1.2427,-0.356 0.3867,-0.18267 0.7827,-0.324 1.1613,-0.45067 0.7654,-0.256 1.3827,-0.604 1.884,-0.75333 0.4934,-0.17867 0.804,-0.26267 0.804,-0.26267 0,0 -0.089,0.28933 -0.3066,0.776 -0.2414,0.456 -0.5134,1.208 -1.1307,1.88 -0.552,0.73733 -1.3573,1.48933 -2.4413,2.09467 -0.536,0.288 -1.1787,0.53066 -1.8214,0.71866 -0.6746,0.0667 -1.3866,0.23333 -2.0973,0.14533 -0.7227,-0.0707 -1.4107,-0.23999 -2.0493,-0.50799 -0.6587,-0.21067 -1.1787,-0.65334 -1.692,-1 -0.98,-0.78134 -1.6254,-1.69467 -2.052,-2.51867 -0.8494,-1.65333 -0.7987,-2.94267 -0.7987,-2.94267"
         style="fill:#ffffff;fill-opacity:1;fill-rule:nonzero;stroke:none;stroke-width:0.133333" />
      <path
         id="path47"
         d="m 2151.8102,384.98286 c 0,0 0.9734,0.64667 2.1307,1.612 0.5907,0.48267 1.2467,1.016 1.9053,1.57867 0.6934,0.50533 1.336,1.14 2.0414,1.53066 0.656,0.51067 1.332,0.8 1.9746,1.068 0.3267,0.0467 0.6507,0.27067 0.9867,0.268 0.3267,0.0213 0.676,0.15467 1.004,0.10667 0.672,0.0293 1.3067,-0.02 1.764,-0.10667 0.4733,-0.0467 0.784,-0.06 0.784,-0.06 0,0 -0.12,0.25067 -0.4013,0.66667 -0.272,0.44 -0.7347,1.01067 -1.5307,1.47733 -0.752,0.508 -1.8973,0.83867 -3.1267,0.77334 -1.2253,-0.0493 -2.4613,-0.54667 -3.4613,-1.21067 -2.008,-1.39067 -3.1533,-3.38267 -3.6467,-4.95067 -0.5306,-1.56533 -0.424,-2.75333 -0.424,-2.75333"
         style="fill:#ffffff;fill-opacity:1;fill-rule:nonzero;stroke:none;stroke-width:0.133333" />
      <path
         id="path48"
         d="m 1983.9409,68.428202 c 0,0 1.2827,2.42 3.5253,6.656 2.216,4.245334 5.3894,10.310667 8.8814,17.750667 3.5013,7.426661 7.7386,16.036001 12.0173,25.377331 4.028,9.448 8.324,19.52133 12.62,29.60133 2.0707,5.07067 4.1427,10.144 6.18,15.13334 1.0173,2.49733 2.0293,4.97333 3.0293,7.41866 0.9494,2.46667 1.7867,4.94267 2.6667,7.35467 3.484,9.66933 6.4667,18.792 9.1533,26.552 2.6854,7.76533 4.7054,14.312 6.2147,18.852 1.4373,4.568 2.26,7.18 2.26,7.18 0,0 -1.064,-2.52667 -2.924,-6.95067 -1.7867,-4.45333 -4.4787,-10.75333 -7.452,-18.396 -2.9587,-7.64933 -6.5747,-16.508 -10.1613,-26.104 -0.9094,-2.39066 -1.7867,-4.84666 -2.7694,-7.292 -1.0333,-2.42933 -2.0746,-4.88266 -3.1293,-7.36 -2.1067,-4.95466 -4.2453,-9.98666 -6.3867,-15.01466 -4.1373,-10.12267 -8.2773,-20.24267 -12.156,-29.72934 -4.1426,-9.37066 -7.7626,-18.23466 -10.996,-25.775995 -6.3426,-15.151999 -10.5733,-25.253333 -10.5733,-25.253333"
         style="fill:#ffffff;fill-opacity:1;fill-rule:nonzero;stroke:none;stroke-width:0.133333" />
    </g>
  </g>
</svg>
