<?xml version="1.0" encoding="UTF-8" standalone="no"?>
<!-- Created with Inkscape (http://www.inkscape.org/) -->

<svg
   version="1.1"
   id="svg1"
   width="785.98926"
   height="707.73779"
   viewBox="0 0 785.98928 707.73778"
   xmlns="http://www.w3.org/2000/svg"
   xmlns:svg="http://www.w3.org/2000/svg">
  <defs
     id="defs1" />
  <g
     id="g1"
     transform="translate(-1892.2916,141.2158)">
    <g
       id="g2"
       transform="translate(1505.5809,-837.77711)">
      <path
         id="path13"
         d="m 5847.74,4495.54 c -1385.7,0 -2509.01,128.87 -2509.01,287.79 0,158.95 1123.31,287.8 2509.01,287.8 1385.72,0 2509.09,-128.85 2509.09,-287.8 0,-158.92 -1123.37,-287.79 -2509.09,-287.79 m 0.03,791.43 c -1627.84,0 -2947.44,-225.51 -2947.44,-503.64 0,-278.12 1319.6,-503.57 2947.44,-503.57 1627.88,0 2947.48,225.45 2947.48,503.57 0,278.13 -1319.6,503.64 -2947.48,503.64"
         style="fill:#2c2d2b;fill-opacity:1;fill-rule:nonzero;stroke:none"
         transform="matrix(0.13333333,0,0,-0.13333333,0,1404.2933)" />
      <path
         id="path14"
         d="m 3354.49,4749.07 1.56,0.45 c -11.32,11.1 -17.32,22.39 -17.32,33.81 0,158.95 1123.31,287.8 2509.01,287.8 1385.72,0 2509.09,-128.85 2509.09,-287.8 178.8,191.1 -1123.12,436.17 -2519.23,415.94 -1396.17,-20.21 -2286.5,-182.09 -2482.09,-263.07 -195.59,-80.93 -1.02,-187.13 -1.02,-187.13"
         style="fill:#1d1d1b;fill-opacity:1;fill-rule:nonzero;stroke:none"
         transform="matrix(0.13333333,0,0,-0.13333333,0,1404.2933)" />
      <path
         id="path15"
         d="m 8591.91,4967.53 c 28.97,-41.42 52.33,-89.67 64.95,-145.97 60.72,-269.81 -2016.66,-492.35 -3205.66,-456.04 -688.42,21.06 -1329.24,89.22 -1778.55,175.61 -1.44,-0.41 -2.88,-0.71 -4.62,-0.57 -68.85,5.08 -138.75,24.57 -205.42,41.29 -109.59,27.5 -218.34,59.78 -322.6,103.61 -80.17,33.71 -188.73,94.81 -211.01,168.03 -18.75,-22.93 -28.67,-46.35 -28.67,-70.16 0,-278.12 1319.6,-503.57 2947.44,-503.57 1627.88,0 2947.48,225.45 2947.48,503.57 0,64.98 -72.15,127.13 -203.34,184.2"
         style="fill:#1d1d1b;fill-opacity:1;fill-rule:nonzero;stroke:none"
         transform="matrix(0.13333333,0,0,-0.13333333,0,1404.2933)" />
      <path
         id="path16"
         d="m 3141.92,4706.89 c 0,0 -319.24,148.41 80.94,278.81 400.19,130.37 1272.51,301.27 3165.54,269.78 0,0 -1555.78,4.49 -2518.05,-166.37 0,0 -562.06,-62.94 -642.99,-193.35 0,0 -80.93,-76.43 49.45,-148.38 130.42,-71.94 211.32,-188.85 1704.19,-269.79 0,0 1461.34,-22.5 2189.8,40.45 0,0 -822.89,-116.9 -2248.25,-94.39 -894.99,14.12 -1524.33,166.32 -1780.63,283.24"
         style="fill:#505150;fill-opacity:1;fill-rule:nonzero;stroke:none"
         transform="matrix(0.13333333,0,0,-0.13333333,0,1404.2933)" />
      <path
         id="path17"
         d="m 6442.53,5274.96 c 6.82,2.71 2.68,12.83 -1.92,15.52 -93.76,55.12 -151.82,-29.86 -176.76,-116.6 -16.62,-47.7 -25.04,-101.25 -33.69,-142.99 -6.32,-30.29 -15.63,-59.65 -26.77,-88.49 -15.54,-35.71 -31.77,-71.02 -49.87,-105.47 -12.82,-23.27 -26.37,-46.25 -40.41,-69.11 -58.93,-90.46 -137.44,-173.51 -182.36,-269.88 l -0.25,-2.2 c 24.09,0.09 48.11,0.21 72,0.41 34.8,29.29 67.28,61.44 97.21,95.58 41.7,47.54 70.11,102.85 109.59,151.72 35.11,43.59 83.54,80.08 129.49,24.26 27.15,-33.03 43.12,-92.56 58.94,-132.09 17.11,-42.74 31.27,-86.8 40.04,-132.03 19.47,0.54 38.86,1.11 58.13,1.68 -15.5,117.22 -57.42,232.26 -106.74,339.12 -51.27,111.19 -100.66,369.49 53.37,430.57"
         style="fill:#b2b3b3;fill-opacity:1;fill-rule:nonzero;stroke:none"
         transform="matrix(0.13333333,0,0,-0.13333333,0,1404.2933)" />
      <path
         id="path18"
         d="m 3624.26,4995.32 c -10.72,22.11 -25.37,43.07 -47.99,62.06 -88.71,74.49 -341.32,95.86 -364.64,-40.2 -5.81,-33.83 13.12,19.79 150.93,24.38 213.26,7.07 234.51,-180.02 213.17,-321.88 -2.84,-18.75 -9.51,-36.64 -15.28,-54.8 19.14,-4.85 39.56,-9.59 60.97,-14.32 13.97,33.09 34.35,57.81 75.88,40.06 33.89,-14.42 58.33,-40.8 80.94,-70.02 32.39,-5.39 66.27,-10.69 101.74,-15.78 -63.87,81.21 -129.04,160.49 -185.25,249.49 -23.58,37.32 -41.22,96.44 -70.47,141.01"
         style="fill:#b2b3b3;fill-opacity:1;fill-rule:nonzero;stroke:none"
         transform="matrix(0.13333333,0,0,-0.13333333,0,1404.2933)" />
      <path
         id="path19"
         d="m 4473.75,5125.72 c -39.88,60.29 -137.22,129.66 -226.12,139.6 -53.54,-4.16 -100.91,-21.62 -116.45,-69.58 68.62,-14.71 138.39,-1.02 199.84,-45.59 88.24,-64.02 91.05,-252.89 42.4,-342.83 -40.97,-75.73 -66.33,-173.64 -79.79,-249.89 23.35,-2.12 47.05,-4.21 71.08,-6.23 21.36,83.85 58.85,164.12 86.29,246.55 75.48,84.61 148.09,-64.48 183.47,-116.06 38.34,-55.92 81.22,-111.07 131.21,-158.04 30.43,-1.68 61.25,-3.25 92.37,-4.81 -64.42,100.84 -153.87,187.68 -219.55,287.97 -65.7,100.31 -99.32,220 -164.75,318.91"
         style="fill:#b2b3b3;fill-opacity:1;fill-rule:nonzero;stroke:none"
         transform="matrix(0.13333333,0,0,-0.13333333,0,1404.2933)" />
      <path
         id="path20"
         d="m 5447.98,4830.21 c -18.09,34.41 -34.33,69.77 -49.87,105.43 -11.13,28.81 -20.47,58.18 -26.76,88.49 -8.67,41.72 -17.07,95.3 -33.69,142.99 -24.94,86.74 -83.01,171.72 -176.77,116.62 -4.59,-2.71 -8.74,-12.85 -1.92,-15.56 154.03,-61.06 104.64,-319.34 53.37,-430.55 -47.95,-103.87 -89.03,-215.49 -105.52,-329.3 19.45,-0.7 39.08,-1.36 58.73,-2.01 18.91,89.08 58.7,171.58 96.95,254.18 l 0.22,0.43 c 25.93,31.52 71.08,35.3 105.02,7.48 3.13,-2.56 6.13,-5.43 9.22,-8.14 57.52,-97.5 128.16,-189.4 213.08,-263.19 25.9,-0.33 51.93,-0.54 78.07,-0.78 -45.28,94.18 -121.84,175.96 -179.71,264.77 -14.04,22.83 -27.6,45.88 -40.42,69.14"
         style="fill:#b2b3b3;fill-opacity:1;fill-rule:nonzero;stroke:none"
         transform="matrix(0.13333333,0,0,-0.13333333,0,1404.2933)" />
      <path
         id="path21"
         d="m 8399.26,5074.21 c -10.57,16.02 -29.57,24.98 -46.23,33.32 -29.87,14.92 -64.32,24.46 -97.11,30.59 -75.71,14.26 -153.29,-3.87 -212.73,-53.75 -22.58,-18.99 -37.25,-39.94 -47.95,-62.09 -29.24,-44.53 -46.89,-103.67 -70.49,-141 -65.77,-104.1 -143.7,-195 -217.48,-291.15 34.9,4.43 68.55,8.96 101.06,13.63 33.53,44.73 63.36,92.35 113.83,113.89 57.45,24.47 74.68,-31.88 90.06,-79.92 19.11,3.73 37.52,7.54 55.15,11.36 0.45,3.03 0.71,5.49 0.58,6.35 -3.83,31.45 -19.52,60.14 -24.18,91.23 -24.22,160.86 4.75,297.52 179.23,315.45 32.82,3.36 66.16,4.12 98.57,-2.97 29.77,-6.5 122.82,-53.96 77.69,15.06"
         style="fill:#b2b3b3;fill-opacity:1;fill-rule:nonzero;stroke:none"
         transform="matrix(0.13333333,0,0,-0.13333333,0,1404.2933)" />
      <path
         id="path22"
         d="m 7220.43,4902.8 c -30.23,136.84 16.62,299.58 179.1,304.26 6.75,0.19 16.49,-0.78 27.44,-1.75 30.54,-2.71 70.41,-5.42 80.49,17.01 0.73,1.62 -0.64,3.3 -2.01,4.04 -41.89,21.89 -75.48,57.83 -132.3,53.34 -104.77,-8.3 -173.99,-48.46 -231.9,-136 -65.39,-98.9 -99.08,-218.59 -164.74,-318.9 -70.5,-107.56 -168.38,-199.73 -233.21,-310.33 26.61,1.17 53.03,2.36 79.18,3.63 88.73,74.2 164.62,183.75 228.23,293.24 83.69,66.62 122.73,-4.08 145.79,-79.12 19.38,-62.66 45.91,-122.62 59.66,-187.03 23.36,1.78 46.39,3.67 69.13,5.58 -8.48,56.88 -21.18,113.44 -39.14,167.95 -20.38,61.88 -51.58,120.18 -65.72,184.08"
         style="fill:#b2b3b3;fill-opacity:1;fill-rule:nonzero;stroke:none"
         transform="matrix(0.13333333,0,0,-0.13333333,0,1404.2933)" />
      <path
         id="path23"
         d="m 8102.05,3715.46 c -16.49,-29.18 -6.41,-11.31 -0.1,-0.15 -31.19,-55.16 -79.3,-99.73 -112.28,-153.54 -21.93,-35.8 -42.28,-86.66 -85.06,-105.92 -81.99,-37.01 -123.53,120.43 -141.01,165.41 -34.87,89.85 -84.03,183.54 -75.86,282.95 7.85,95.41 67.95,175.88 103.94,261.68 25.74,61.33 140.17,367.58 226.21,203.58 61.45,-117.09 119.74,-288.15 129.82,-420.26 5.74,-74.76 -8.24,-167.42 -45.66,-233.75 M 7441.48,2299.23 c -26.76,-6.29 -47.88,85.37 -52.41,102.03 -14.38,52.64 -12.54,99.69 -2.43,152.99 148.28,207.75 293.51,417.42 436.47,628.83 1.42,-3.85 3.63,-7.21 6.63,-9.94 -141.65,-285.78 -273.06,-576.7 -388.26,-873.91 m -300.03,-796.27 c -24.54,-44.9 -64.45,-114.53 -127.13,-100.12 -101.26,140.24 -129.5,327.45 -70.61,489.58 32.8,90.25 81.86,173.41 131.63,255.19 37.65,61.88 74.27,150.02 142.73,183.81 53.67,26.52 94.88,-10.18 119.9,-55.57 65.17,-118.16 8.22,-220.21 -36.63,-333.63 -57.3,-144.86 -109.84,-291.76 -159.89,-439.26 m -242.07,-803.3 c -21.8,-84.84 -38.93,-170.762 -57.11,-256.359 -17.17,-81.102 -39.69,-161.102 -56.12,-242.301 -34.62,-35 -78.92,-22 -110.1,10.102 -26.54,53.398 -58.47,105.296 -73.59,163.5 -14.96,57.5 -10.98,125.199 -4.22,183.726 110.45,179.16 234.33,348.25 350.13,523.772 33.86,20.71 34.42,-49.67 38.15,-69 -30.65,-104.299 -60.25,-208.87 -87.14,-313.44 m -333.81,-17.461 c -89.35,-108.711 -178.55,214.301 -189.62,262.153 -5.33,23.16 -11.22,47.398 -11.74,71.328 -1.28,59.72 32.41,121.72 66.51,168.42 95.49,130.64 192.12,260.21 284.96,392.81 78.38,52.13 121.22,-58.68 143.4,-114.67 34.61,-87.54 56.43,-185.37 38.03,-279.26 -16.53,-84.49 -68.57,-156.39 -120.75,-222.558 -59.03,-74.844 -116.1,-150.332 -169.6,-229.254 -13.84,-16.199 -27.66,-32.406 -41.09,-48.828 -86.42,-105.469 -10.69,-13.031 -0.1,-0.141 M 6446.26,467.398 c -7.24,-34 -18.82,-66.097 -32.82,-97.097 -16.97,-54.903 -43.77,-106.403 -75.71,-153.903 C 6309.37,174.199 6275.49,132.801 6227.19,113 6189.71,85.1992 6153.34,86.3008 6119,105 c 0,9 -9.47,15 -15.17,20.699 -45.98,29.199 -84.13,78.699 -112.14,124.801 -31.65,52.098 -45.97,111.102 -33.53,171.5 12.95,62.801 50.18,116.328 84.03,169.5 37.61,59.02 76.18,117.539 115.39,175.559 12.69,26.449 29,50.261 49.55,67.742 1.24,1.929 2.42,3.937 3.66,5.937 3.51,2.032 6.93,3.434 10.34,4.512 63.36,39.98 121.49,-48.578 149.2,-94.672 50.82,-84.488 97.43,-182.168 75.93,-283.18 m -609.11,115.114 c 10.41,-8.403 40.43,-32.594 -0.06,0.058 l -0.13,0.059 c -18.85,15.23 -36.46,31.91 -52.48,50.039 C 5741.92,715.422 5700.67,799 5660.76,883 c -16.52,55.219 -30.55,112.168 -16.55,169.38 7.08,28.83 18.5,56.48 31.2,83.26 6.29,13.16 12.89,26.11 19.65,39.04 5.01,9.69 18.18,26.13 17.04,37.54 55.69,85.21 114.62,168.05 173.92,250.8 7.54,2.67 15.29,4.78 23.35,5.7 67.51,12.23 104.58,-42.26 138.02,-91.5 15.76,-35.02 32.92,-67.97 49.16,-96.82 12.47,-24.92 24.6,-50.02 36.85,-75.04 13.88,-49.98 36.27,-103.77 38.98,-155.78 1.21,-23.14 -2.26,-46.15 -8.1,-68.549 -6.41,-24.832 -20.8,-51.429 -22.75,-76.953 -63.96,-98.129 -124.45,-198.168 -184.59,-298.637 -34.58,-34.16 -65.3,-66.832 -119.79,-22.929 m -35.85,-248.41 c -4.25,-9.301 -8.49,-18.602 -12.71,-27.903 C 5746.96,240.5 5712.93,145.5 5638.4,109.602 c -96.16,-46.4028 -173.58,55.996 -223.06,122.699 -54.72,98.097 -94.11,195.5 -109.2,307.808 2.62,30.332 7.34,60.289 14.26,89.75 7.72,12.442 15.99,24.571 23.95,36.832 18.16,61.579 52.17,117.7 89.71,169.219 23.77,32.598 59.03,85.059 105.64,80.801 49.44,-4.531 82.57,-64.59 100.94,-104.082 28.1,-60.309 47.37,-124.199 67.31,-187.5 25.81,-52.699 52,-105.129 78.67,-157.43 11.68,-39.801 18.28,-80 15.54,-119.301 1.08,5.403 1.81,6 -0.86,-14.296 m -532.45,376.296 c -40.49,-33.359 -84.45,15.551 -108.41,45.473 -40.35,96.27 -79.62,193.16 -119.12,290.119 -13.98,47.56 -32.64,95.61 -32.64,145.78 24.44,97.19 82.63,173.97 140.98,252.89 20.19,27.29 42.72,62.03 75.04,76.05 40.07,17.53 73.69,-33.65 100.36,-55.11 46.06,-105.92 92.9,-211.53 140.24,-316.92 -1.4,-56.36 1.63,-107.28 -20.8,-160.5 -20.52,-48.621 -48.93,-95.551 -76.05,-140.739 -14.84,-24.711 -31.05,-48.5 -47.92,-71.82 -15.54,-21.512 -31.11,-48.203 -51.68,-65.223 M 5125.73,450.801 c -23.32,-50.801 -35.44,-101 -45.58,-156.199 -19.09,-45.204 -39.62,-98.004 -74.78,-133.5 -41.19,-41.704 -70.25,40.796 -84.93,70.597 -62.78,127.403 -98.07,271 -138.61,406.52 -47.35,128.242 -51.24,286.031 58.44,385.761 53.63,48.67 97.97,-7.5 123.25,-55.511 33.68,-64.098 58.82,-133.16 82.17,-201.5 41.57,-101.59 67.8,-203.66 80.24,-314.071 l -0.2,-2.097 m -424.97,601.439 c -50.75,42.77 -74.59,124.3 -95.96,181.23 -26,69.14 -45.33,140.47 -69.19,210.33 -23.8,69.81 -51.91,138.09 -59.85,211.97 -4.57,42.27 0,111.53 24.18,147.25 40.48,59.87 87.95,-3.75 115.17,-47.27 35.63,-56.89 64.34,-118.65 91.84,-179.8 31.74,-70.66 56.76,-144.3 75.9,-219.36 12.44,-48.73 22.3,-95.87 21.66,-146.24 -0.7,-51.47 -2.84,-168.93 -72.73,-176.7 6.53,-2.05 14.54,-6 21.11,-7.41 -20.1,4.3 -37.27,13.5 -52.13,26 m -292.64,823.09 c -10.49,6.69 -21.6,22.67 -32.92,51.34 -34.9,88.34 -65.87,178.4 -99.73,267.15 -42.75,112.05 -86.14,223.98 -138.55,331.92 -16.43,65.17 -28.23,125.66 -21.75,195.91 20.03,34.52 37,41.12 50.91,20.22 83.81,-170.57 171.83,-339.14 254.54,-510.28 24.32,-66.03 47,-135.33 55.43,-205.41 6.37,-53.43 -25.66,-177.79 -67.93,-150.85 m -462.11,1442.53 c -23.22,43.97 -47.69,87.29 -72.83,130.24 -15.11,50.33 -25.07,103.16 -19.42,155.88 5.52,51.54 25.13,100.94 49.23,146.42 14.32,24.63 29.19,49.01 44.5,73.05 40.26,55.74 80.17,33.89 114.79,-1.13 41.88,-77.85 84.18,-155.49 129.13,-231.62 45.01,-76.27 95.23,-148.89 142.77,-223.58 13.68,-69.02 -8.5,-134.94 -42.85,-194.41 -18.19,-24.81 -35.89,-49.57 -53.12,-74.36 -33.14,-47.73 -108.05,-74.28 -147.86,-19.61 -53.76,73.79 -93.7,162.31 -144.34,239.12 m 143.89,-475.78 c -10.11,-23.16 -19.43,-46.83 -27.85,-71.05 -3.38,-6.02 -6.95,-11.66 -10.62,-16.7 -86.59,228.32 -177.39,453.83 -271.18,679.31 1.72,4.38 3.42,8.77 5.08,13.21 95.93,-170.74 189.21,-343.14 286.52,-513.3 l 9.5,-19.3 c 8.65,-23.22 13.94,-47.6 8.55,-72.17 m -325.82,830.61 c -12.16,-0.76 -117.6,179.39 -128.12,197.28 -41.34,70.47 -77.78,145.22 -95.48,225.43 8.64,52.39 21.73,103.93 37.9,154.44 16.72,52.24 34.1,108.28 60.39,156.58 51.37,29.88 96.15,-40.94 123.53,-74.83 40.71,-50.46 73.5,-111.77 107.86,-166.77 29.82,-47.74 64.02,-100.53 62.85,-159.05 -1.19,-58.22 -34.59,-107.63 -62.91,-156.15 -14.33,-24.59 -67.48,-162.38 -106.02,-176.93 m 389.46,346.58 c 31.05,78.36 96.76,136.17 157.93,191.13 42.32,38.09 125.94,150.39 189.3,138.05 83.04,-16.21 107.51,-116.48 125.89,-185.8 28.87,-109.1 101.7,-208.52 98,-325.12 -2.72,-85.02 -51.55,-158.69 -100.84,-224.88 -44.95,-60.35 -140.72,-194.26 -239.97,-157.7 -44.83,68.4 -91.06,136.51 -135.84,205.2 -46.45,88.08 -101.23,192.46 -110.93,293.22 2.9,22.03 7.82,44.02 16.46,65.9 m 708.71,-343.4 c 26.93,-21.93 47.12,-50.84 68.02,-78.92 65.46,-109.96 123.66,-224.81 181.11,-339.83 18.18,-60.1 32.92,-121.25 44.63,-182.91 11.51,-60.62 -0.26,-109.49 -25.21,-164.98 -45.14,-65.19 -90.24,-142.56 -152.72,-192.77 -26.66,-21.45 -59.93,-38.93 -95.12,-36.92 -39.86,2.23 -68.05,30.92 -93.8,58.42 -70.27,125.43 -141.06,250.59 -211.6,375.86 -28.15,77.81 -73.63,178.85 -43.07,261.41 79.94,105.21 158.71,211.89 242.04,314.49 28.49,9.9 58.41,8.4 85.72,-13.85 m 122.58,121.02 c 3.4,15 8.79,29.53 16.42,43.51 -1.24,-3.26 -2.46,-6.58 -3.53,-9.86 22.29,68.36 76.21,116.25 122.37,167.36 68.72,76 200.09,329.96 329.35,282.6 63.84,-23.36 95.81,-105.31 125.73,-162.01 64,-121.17 122.7,-255.1 125.25,-395.78 1.69,-92.48 -54.14,-161.17 -108.09,-228.36 -65.53,-81.66 -123.78,-169.3 -188.35,-251.86 -41.47,-37.93 -93.5,-74.78 -145.08,-30.35 -48.4,41.68 -78.67,108.69 -109.53,162.46 -61.95,107.82 -196.23,283.79 -164.54,422.29 m 862.41,-149.34 c 85.17,-27.15 110.86,-137.5 146.33,-208.26 48.46,-96.56 108.78,-191.76 129.2,-299.43 2.68,-5.61 5.46,-11.19 8.14,-16.82 4.72,-35.78 10.9,-71.72 9.25,-107.91 -2.1,-44.83 -18.6,-83.65 -40.23,-122.33 -44.85,-80.17 -98.77,-151.26 -151.31,-226.18 -50.15,-71.59 -94.18,-147.58 -150.51,-214.69 -24.48,-29.16 -53.89,-67.99 -96.86,-61.88 -40.42,5.74 -71.68,42.91 -94.37,73.71 -28.35,57.64 -56.63,115.36 -85.59,172.74 -17.1,39.84 -35.64,79.57 -54.59,119.04 -47.46,98.79 -98.51,246.06 -59.37,354.9 45.18,125.41 149.44,212.48 229.06,315.2 42.72,55.09 122.12,250.21 210.85,221.91 m 123.8,169.63 c 31.62,132.64 131.61,232.91 191.8,352.03 24.38,48.2 48.91,132.91 118.71,109.55 50.15,-16.77 83.23,-83.82 107.46,-126.33 61.5,-107.93 148.28,-201.17 199.45,-315.15 97.11,-216.05 -87.17,-447.46 -232.96,-593.17 -44.28,-44.27 -104.44,-51.01 -153.32,-26.19 -17.9,9.1 -37,67.39 -46.26,84.1 -16.4,29.54 -32.82,59.09 -49.32,88.52 -31.07,55.43 -65.08,110.16 -93.35,166.72 -39.39,78.87 -62.68,173.81 -42.21,259.92 m 683.06,-291.5 0.04,0.07 0.06,0.1 c 50.69,48.13 93.73,23.19 127.62,-20.72 36.36,-76.06 71.83,-152.48 107.28,-228.95 14.61,-58.96 25.77,-129.43 10.14,-189.21 -14.99,-56.98 -50.4,-107.07 -83.71,-154.67 -36.12,-51.68 -68.68,-105.74 -106.26,-156.41 -31.78,-42.79 -66.81,-82.95 -97.91,-126.15 -18.12,-25.2 -43.94,-63.77 -77.62,-68.14 -47.22,-6.12 -72.39,85.66 -85.95,117.3 -54.84,127.71 -111.08,252.89 -82.27,394.51 91.56,137.27 181.34,275.8 271.14,414.26 5.8,6.01 11.32,12.21 17.44,18.01 m 265.33,366.5 c 17.58,41.47 9.57,22.48 0.17,0.29 43.6,102.82 113.12,194.75 153.45,298.6 18.34,27.3 37.07,54.33 56.3,80.99 16.43,22.82 34.05,55.59 63.2,65.16 45.88,14.98 82.41,-49.96 103.11,-78.48 37.01,-73.12 71.4,-147.42 107.51,-220.94 20.16,-40.99 44.28,-77.22 43.07,-123.65 -2.08,-81.74 -44.47,-162.63 -84.41,-232.75 -45.94,-80.65 -100.08,-157.31 -159.1,-229.63 -21.64,-26.52 -43.96,-52.64 -68.11,-77.17 -17.42,-17.75 -37.14,-38.16 -63.58,-41.79 -40.1,-5.45 -71.85,30.23 -92.11,58.57 -26.16,36.68 -45.2,78.07 -61.63,119.43 -21.31,53.6 -38.06,108.6 -41.13,166.25 -3.89,74.09 14.27,146.47 43.11,214.71 -10.88,-25.76 -23.29,-55 0.15,0.41 M 6624.22,2362.79 c -0.96,7.81 -1.7,21.62 -2.11,44.02 21.28,71.46 43.9,138.42 71.87,201.72 63.33,92.68 127.1,185.19 191.22,277.46 35.42,33.57 87.22,66.6 134.38,35.17 38.03,-25.39 58.45,-73.34 74.97,-114.17 51.49,-126.9 91.97,-264.05 42.36,-398.21 -29.03,-78.59 -81.29,-150.64 -126.46,-220.7 -31.54,-49 -62.27,-98.38 -93.72,-147.42 -21.93,-34.22 -52,-84.06 -95.07,-93.71 -54.75,-12.33 -88.56,66.64 -108.12,103.82 -50.43,96.14 -81.2,203.54 -89.32,312.02 m -521.99,-597.76 c 90.6,126.14 180.63,252.6 270.08,379.51 67,56.47 137.91,40.14 187.55,-32.12 254.2,-369.81 17.55,-613.81 -159.31,-824.05 -28.4,-33.69 -63.24,-112.52 -117.21,-104.51 -40.42,6 -71.17,49.77 -91.79,81.13 -30.78,46.8 -54.97,97.91 -80.74,147.56 -52.48,114.96 -63.87,253.2 0,361.15 -6.09,-7.75 -10.27,-12.4 -8.58,-8.67 m -333.86,421.66 c -0.61,-7.54 -2.2,-1.64 -4.76,41.92 6.94,25.44 17.52,49.76 29.52,73.65 130.57,169.67 259.62,340.53 383.46,515.23 37.14,23.93 71.59,8.44 101.58,-24 48.78,-52.73 73.82,-144.61 95.45,-211.47 47.06,-145.39 24.38,-271.77 -63.68,-395.05 -98.16,-137.5 -199.03,-273.01 -296.69,-410.96 -85.49,-38.03 -128.88,104.71 -154.28,160.47 -36.62,80.43 -76.47,162.34 -90.6,250.21 m -391.34,-446.58 c -1.73,-1.21 0.61,7.6 12.34,37.76 35.36,90.66 117.27,193.73 209.06,232.01 140.97,58.73 199.68,-151.76 248.9,-246.2 9.03,-75.97 11.19,-148.39 -23.42,-218.8 -19.08,-38.83 -43.33,-75.69 -65.2,-112.97 -23.45,-39.98 -47.76,-79.67 -76.8,-115.86 -30.05,-37.52 -75.86,-112.91 -133.47,-83.54 -31.84,16.21 -48.36,52.54 -64.25,82.6 -22.49,42.52 -49.1,82.7 -72.77,124.59 -5.75,12.97 -11.59,25.96 -17.33,38.91 -28.39,85.09 -40.9,173 -17.06,261.5 m -257.2,340.84 c -22.39,48.18 -44.06,96.64 -63.45,146.11 -34.74,88.79 -44.54,179.2 -70.25,268.56 -5.52,19.24 -5.58,40.04 -1.53,61.7 0.09,3.22 0.06,6.42 0.16,9.67 0.95,1.19 1.88,2.42 2.84,3.63 24.53,94.28 96.88,175.66 161.27,245.74 27.91,30.41 57.9,69.71 98.54,82.79 54.07,17.46 79.59,-45.27 95.68,-84.76 51.07,-80.24 91.77,-170.8 131.3,-257.19 85.78,-187.25 102.28,-365.04 -18.66,-544 -22.46,-33.19 -41.57,-68.4 -67.86,-98.89 -22.87,-26.54 -51.96,-53.69 -87.38,-61.19 -42.04,-8.91 -73.5,18.46 -97.27,49.86 -3.5,7.72 -6.98,15.53 -10.58,23.23 -23.87,51.73 -48.78,103.04 -72.81,154.74 m -464.78,164.12 c -114.15,-165.1 -279.27,295.1 -312.51,352.13 -41.92,71.93 -81.11,146.76 -101.43,228.01 -16.3,64.98 -19.23,147.17 37.52,194.82 32,46.1 64.77,92.27 97.94,140.12 46.07,19.65 81.64,-14.36 107.77,-49.06 67.08,-122.48 131.15,-246.7 201.18,-367.56 45.1,-77.79 81.5,-157.85 71.42,-249.82 -9.5,-86.71 -52.7,-177.5 -101.89,-248.64 m 34.99,-110.43 c 0.29,1.41 0.52,2.79 0.77,4.26 17.35,94.8 73.41,307.56 203.11,197.25 44.07,-37.56 163.44,-265.94 186.48,-335.86 4.91,-9.3 9.6,-18.68 14.55,-27.93 21.28,-82.07 53.69,-162.99 59.14,-248.42 5.08,-79.92 -26.09,-154.32 -65.3,-222.17 -21.03,-33.59 -45.33,-64.53 -72.86,-92.83 -49.96,-55.41 -88.09,-53.44 -118.74,-30.37 -61.99,46.83 -93.79,198.36 -123.53,268.2 -65.65,154.18 -112.23,319.53 -83.62,487.87 m 2835.31,1563.6 c 93.73,-15.78 195.22,-311.27 206.15,-352.88 19.79,-75.35 -12.95,-144.19 -35.46,-214.68 -86.02,-123.19 -171.83,-246.49 -259.15,-368.73 -150.89,-211.14 -244.47,135.52 -292.28,241.17 -22.25,75.29 -21,149.47 5.86,223.47 105.47,146.63 215.72,290.16 317.56,439.28 18.15,26.56 37.57,35.69 57.32,32.37 m 1146.8,977.26 c -11.71,103.36 -99.86,184.81 -196.49,212.44 4.62,-1.31 9.7,-2.73 14.64,-4.18 -4.21,1.22 -9.06,2.62 -14.7,4.22 -1.57,0.47 -2.5,0.7 -3.8,1.07 1.28,-0.34 2.33,-0.64 3.73,-1.05 -41.92,11.98 -89.92,3.28 -128.34,-15.92 -19.71,-9.86 -37.99,-23.22 -51.74,-40.56 -4.38,-5.53 -32.03,-50.32 -8.26,-43.15 -0.14,-3.59 2.58,-5.64 8.41,-5.86 83.69,7.91 162.99,-14.2 219.58,-79.12 53.44,-61.19 58.9,-138.61 35.93,-213.94 -23.38,-76.62 -66.93,-145.88 -109.17,-213.32 -48.84,-78.01 -82.47,-116.74 -128.41,-196.47 -54.49,-94.65 -100.65,90.49 -103.36,104.04 -18.95,96.96 -44.98,192.56 -75.61,286.41 -28.17,86.46 -77.24,204.88 -183.57,210.47 -44.43,46.99 -93.6,-26.7 -105.66,-64.96 -16.01,-50.84 -23.98,-104.79 -38.21,-156.35 -24.86,-90.41 -65.5,-183.89 -117.02,-261.97 -70.25,-106.41 -121.52,-117.09 -176.52,5.99 -15.12,33.91 -31.58,67.21 -48.07,100.45 -26.17,52.64 -49.77,106.31 -75.16,159.3 -25.3,52.93 -54.39,108.56 -99.29,147.64 -19.87,11.13 -40.64,18.92 -63.67,18.73 -51.94,20.8 -90.18,-33.15 -110.8,-72.37 -25.56,-48.67 -43.64,-101.35 -67.44,-150.97 -32.69,-67.89 -68.14,-134.36 -103.13,-201.06 -36.95,-70.51 -79.51,-246.75 -174.73,-256.36 -137.44,-13.81 -249.39,343.71 -292.45,434.76 -27.98,59.18 -57.11,118.07 -92.8,173.07 -24.83,38.18 -68.7,106.99 -121.33,62.56 -64.19,-24.44 -173.58,-259.5 -241.06,-394.38 -36.01,-72.09 -111.27,-236.07 -178.3,-238.24 -79.08,-2.58 -113.57,130.7 -143.27,189.33 -42.71,84.38 -79.47,169.28 -105.98,260.14 -4.98,16.93 -10.11,34.77 -16.31,52.35 -29.54,48 -73.34,83.61 -137.37,59.57 -30.27,-11.37 -54.23,-30.53 -76.59,-51.98 -8.55,-10.93 -17,-21.95 -25.46,-32.52 -94.88,-118.53 -187.3,-241.62 -292.73,-351.13 -33.79,-35.1 -114.66,-136.64 -163.22,-147.52 -80.26,-18.06 -142.25,176.19 -163.11,235.18 -28.49,80.52 -60.14,162.89 -67.29,248.65 -7.15,37.23 -2.26,102.28 -22.11,130.41 -77.8,110.08 -214.54,-72.68 -270.11,-122.46 -39.88,-35.8 -78.19,-73.17 -115,-112.07 -57.87,-61.27 -112.94,-164.89 -202.58,-183.03 -51.07,-10.37 -73.13,28.83 -95.52,67.25 -23.9,40.99 -47.25,82.09 -72.55,122.24 -28.61,45.43 -56.43,91.12 -82.81,137.89 -0.67,0.73 -1.48,1.31 -2.08,2.29 -14.93,25.02 -30.5,50.06 -40.45,76.8 -2.42,4.78 -5.01,9.41 -7.37,14.19 0.54,1.23 1.12,2.64 1.7,4.03 -3.58,14.08 -5.53,28.73 -4.38,44.24 3.6,50.15 -36.59,65.52 -69.13,32.42 -15.99,-16.27 -27.95,-33.93 -36.94,-54.79 -1.15,-2.65 -3.07,-4.24 -5.21,-5.23 -52.51,-109.86 -102.94,-221.37 -144.07,-335.76 -8.73,-19.12 -17.64,-38.17 -26.54,-57.21 -11.9,-25.43 -119.12,90.82 -126.61,100.78 -44.42,58.63 -87.11,118.42 -134.63,174.67 -41.86,49.45 -92.68,103.9 -104.71,170.04 -30.98,170.13 167.01,131.21 261.12,95.16 -24.6,71.75 -59.15,139.47 -144.29,142.42 -90.39,3.18 -188.8,-59.83 -226.76,-141.08 -64.87,-138.85 58.25,-273.67 148.5,-365.06 114.66,-116.05 217.92,-223.22 293.72,-370.44 191.17,-371.35 326.88,-767.39 485.37,-1153 267.31,-650.41 504.27,-1309.6 715.44,-1981.44 64.89,-206.371 128.15,-415.25 208.99,-616.051 22.08,-54.801 32.47,-118.5 65.33,-168.199 22.94,-34.6016 66.26,-51.9023 105.6,-36.1016 41.89,16.6993 72.26,57.3006 96.02,93.8006 52.48,80.602 87.77,172.5 119.22,262.903 17.96,-31.903 36.69,-63.301 56.41,-94.204 38.03,-106.199 91.3,-224.2964 193.23,-283.4996 47.37,-27.5 108.92,-44.09762 162.36,-26 63.26,21.3008 110.98,77.3008 146.77,131.1996 24.19,10.601 41.25,39.8 55.99,60.504 17.16,24.097 32.73,49.296 47.51,74.898 40.48,-75.602 83.68,-152.602 147.12,-211.6992 51.71,-48.1016 116.68,-88.4024 187.82,-59.8008 62.84,25.1992 110.86,82.1992 148.47,136.398 41.31,59.5 75.48,125.5 98.48,194.2 23.67,19.203 42.01,-0.797 62.18,-17.797 24.98,-47.699 52.38,-93.801 80.58,-139.5 22.82,-37.203 48.43,-78.703 88.4,-99.5002 31.3,-27.6016 82.47,-53.4024 121.01,-24.1016 21.53,16.3008 31.71,43.8988 37.2,69.4998 9.22,42.801 18.53,85.602 27.98,128.301 36.78,166.301 75.54,332.051 117.33,497.109 155.78,615.241 366.14,1210.771 624.42,1790.391 162.93,365.67 337.05,728.03 535.33,1075.96 135.89,238.5 281.53,471.37 410.19,714.01 28.62,53.98 54.97,109.43 74.04,167.57 17.78,54.13 34.69,116.04 28.15,173.46"
         style="fill:#c7c8c8;fill-opacity:1;fill-rule:nonzero;stroke:none"
         transform="matrix(0.13333333,0,0,-0.13333333,0,1404.2933)" />
      <path
         id="path24"
         d="m 8498.79,4881.34 c 7.5,-2.15 11.89,-3.38 13.5,-3.83 -1.92,0.51 -7.11,2.03 -13.5,3.83"
         style="fill:#dedede;fill-opacity:1;fill-rule:nonzero;stroke:none"
         transform="matrix(0.13333333,0,0,-0.13333333,0,1404.2933)" />
      <path
         id="path25"
         d="m 8492.89,4883.02 c 2.04,-0.57 4.05,-1.11 5.9,-1.68 -1.79,0.51 -3.7,1.07 -5.9,1.68"
         style="fill:#dedede;fill-opacity:1;fill-rule:nonzero;stroke:none"
         transform="matrix(0.13333333,0,0,-0.13333333,0,1404.2933)" />
      <path
         id="path26"
         d="m 8490.3,4883.76 c 0.96,-0.25 1.69,-0.45 2.59,-0.74 l -2.59,0.74"
         style="fill:#dedede;fill-opacity:1;fill-rule:nonzero;stroke:none"
         transform="matrix(0.13333333,0,0,-0.13333333,0,1404.2933)" />
      <path
         id="path27"
         d="m 8512.29,4877.51 c 1.05,-0.31 0.98,-0.31 0,0"
         style="fill:#dedede;fill-opacity:1;fill-rule:nonzero;stroke:none"
         transform="matrix(0.13333333,0,0,-0.13333333,0,1404.2933)" />
      <path
         id="path28"
         d="m 8471.8,4889.06 c -4.53,1.3 -8.48,2.42 -10.49,3 1.69,-0.5 5.39,-1.56 10.49,-3"
         style="fill:#dedede;fill-opacity:1;fill-rule:nonzero;stroke:none"
         transform="matrix(0.13333333,0,0,-0.13333333,0,1404.2933)" />
      <path
         id="path29"
         d="m 4566.81,4548.41 c 0,0 -10.76,-1.25 -28.08,-7.66 -17.51,-5.87 -40.77,-18.47 -66.16,-36.56 -12.61,-9.26 -25.81,-19.84 -38.55,-32.48 -12.37,-12.15 -25.64,-27.21 -39.67,-41.15 -27.03,-29.16 -55.78,-60.35 -84.58,-91.47 -29.32,-30.87 -57.96,-62.4 -85.79,-91.05 -27.37,-29.08 -54.14,-55.16 -76.3,-78.22 -22.27,-22.93 -41.96,-41.06 -55.16,-54.26 -13.66,-12.85 -21.45,-20.2 -21.45,-20.2 0,0 6.17,8.81 17.52,23.64 11.59,14.68 27.38,36.31 47.86,60.93 20.42,24.63 43.82,53.75 69.99,84.03 26.19,30.25 54.59,62.09 83.58,93.47 29.03,31.12 58.95,62.21 87.73,90.3 14.74,13.75 28.24,26.7 43.13,38.88 14.45,12 29.33,21.88 43.26,30.41 28.15,17.04 54.72,25 73.15,28.83 18.67,3.79 29.52,2.56 29.52,2.56"
         style="fill:#ffffff;fill-opacity:1;fill-rule:nonzero;stroke:none"
         transform="matrix(0.13333333,0,0,-0.13333333,0,1404.2933)" />
      <path
         id="path30"
         d="m 5460.49,4504.56 c 0,0 -3.74,0.39 -10.44,-0.5 -6.7,-1.08 -16.33,-3.79 -27.31,-9.73 -11.07,-5.84 -23.29,-15.12 -35.15,-27.76 -12.22,-12.44 -23,-28.96 -35.06,-46.6 -11.84,-18.79 -24.73,-38.57 -39.46,-59.51 -14.68,-20.62 -30.06,-42.36 -47.19,-63.96 -33.53,-43.64 -70.98,-88.81 -109.3,-133.23 -77.11,-88.41 -157.65,-173.61 -225.07,-231.44 -8.8,-6.99 -16.74,-14.06 -27.34,-19.45 -9.54,-3.83 -18.44,-6.64 -27.47,-9.3 -4.49,-1.21 -9.22,-1.74 -13.49,-2.54 -4.53,-0.14 -9.03,0.2 -13.14,0.57 -4.05,1.46 -7.92,2.77 -11.4,4.27 -2.99,2.23 -5.83,4.4 -8.54,6.45 -9.77,9.12 -15.09,17.87 -18.44,23.87 -3.55,5.89 -5.46,9.06 -5.46,9.06 0,0 2.31,-2.85 6.64,-8.24 3.99,-5.49 10.84,-13.05 20.48,-20.57 9.6,-8.34 24.5,-10.21 40.32,-3.3 7.76,3.2 16.69,7.05 25.28,11.62 6.81,4.57 14.57,11.58 22.45,18.85 31.27,30.02 64.99,68.59 101.61,109.12 36.34,40.9 75.15,84.47 113.18,128.69 38.58,43.83 76.12,88.5 111.22,130.41 17.32,21.09 34.04,41.47 49.92,60.84 15.51,19.2 29.8,38.4 42.49,56.06 7,8.8 13.7,17.24 20.07,25.25 6.42,7.95 14.43,13.98 20.83,20.37 13.82,11.95 27.67,20.31 39.83,25.23 12.09,5.14 22.55,6.16 29.41,6.43 6.98,-0.06 10.53,-0.96 10.53,-0.96"
         style="fill:#ffffff;fill-opacity:1;fill-rule:nonzero;stroke:none"
         transform="matrix(0.13333333,0,0,-0.13333333,0,1404.2933)" />
      <path
         id="path31"
         d="m 4347.61,3435.52 c 0,0 4.01,-3.22 11.41,-7.87 7.35,-4.67 18.16,-10.82 31.5,-15.16 6.7,-2.01 13.9,-3.88 21.49,-4.27 7.6,-0.82 15.38,0.44 23.23,1.79 7.82,2.03 15.38,5.49 22.9,9.69 3.48,2.32 7.79,4.82 10.66,6.95 l 11.68,9.51 c 7.94,6.06 15.89,12.19 23.74,18.19 7.77,6.05 16.01,11.39 22.74,17.48 14.09,11.78 28.04,21.99 39.92,31.17 23.43,18.67 40.38,30.31 40.38,30.31 0,0 -10.28,-17.81 -29.6,-41.38 -9.57,-11.86 -22.15,-24.75 -35.64,-38.5 -13.41,-14.04 -29.51,-25.49 -44.92,-38.52 l -11.93,-9.08 c -5.23,-3.67 -9.67,-5.99 -14.52,-8.96 -9.79,-5.3 -20.61,-8.36 -31.2,-10.18 -10.78,-1.21 -21.31,-0.78 -30.69,1.76 -9.57,1.84 -17.67,6.05 -24.72,10.08 -14.04,8.18 -23,18.08 -28.62,25.15 -5.55,7.19 -7.81,11.84 -7.81,11.84"
         style="fill:#ffffff;fill-opacity:1;fill-rule:nonzero;stroke:none"
         transform="matrix(0.13333333,0,0,-0.13333333,0,1404.2933)" />
      <path
         id="path32"
         d="m 3695.63,4643.96 c 0,0 -6.7,-6.45 -16.16,-19.3 -9.63,-12.73 -22.26,-31.72 -33.97,-56.21 -6.41,-11.93 -12.37,-25.33 -17.86,-39.88 -6.55,-14.01 -10.98,-29.91 -16.4,-45.82 -10.56,-32.48 -21.08,-67.89 -32.96,-102.52 -23.32,-69.63 -49,-138.4 -70.15,-189.36 -10.31,-25.58 -20.2,-46.48 -26.58,-61.25 -6.57,-14.72 -10.78,-22.99 -10.78,-22.99 0,0 1.73,9.12 5.56,24.75 3.98,15.61 8.92,38.12 16.38,64.67 14.5,53.2 36.22,123.36 60.34,192.69 6.15,17.29 12.31,34.57 18.38,51.58 6.47,16.94 12.11,33.62 18.91,49.73 6.86,16.17 12.64,32.07 20.48,46.23 7.18,14.36 14.75,27.5 22.62,39.14 7.21,11.99 15.86,21.74 22.68,30.73 7.43,8.59 14.04,15.95 19.88,21.56 11.73,11.31 19.63,16.25 19.63,16.25"
         style="fill:#ffffff;fill-opacity:1;fill-rule:nonzero;stroke:none"
         transform="matrix(0.13333333,0,0,-0.13333333,0,1404.2933)" />
      <path
         id="path33"
         d="m 3072.82,4811.44 c 0,0 -6.53,-5.86 -16.72,-16.99 -10.2,-11.06 -23.44,-28.21 -34.83,-50.39 -11.58,-22.11 -19.3,-50.22 -17.29,-80 0.64,-7.21 2.07,-15.38 3.41,-21.96 2.24,-7.87 3.93,-16.81 6.99,-23.71 4.88,-14.51 12.57,-30.02 20.23,-44.74 15.82,-29.71 34.9,-58.11 53.72,-84.07 18.86,-26.07 37.65,-49.61 54.01,-69.74 16.43,-20.04 30.28,-36.78 40.51,-47.97 10.12,-11.41 15.89,-17.93 15.89,-17.93 0,0 -29.09,19.61 -67.34,55.72 -19.08,18.07 -40.39,40.24 -61.48,65.63 -21.02,25.43 -41.82,54.2 -58.89,85.68 -8.8,15.76 -15.95,31.87 -21.85,49.8 -3.48,8.97 -4.73,16.84 -6.89,25.08 -1.79,9.79 -2.5,18.19 -2.82,27.15 -0.63,35.61 12.06,67.38 27.76,89.45 15.25,22.72 33.02,36.76 45.17,46.14 12.41,9.22 20.42,12.85 20.42,12.85"
         style="fill:#ffffff;fill-opacity:1;fill-rule:nonzero;stroke:none"
         transform="matrix(0.13333333,0,0,-0.13333333,0,1404.2933)" />
      <path
         id="path34"
         d="m 5221.05,3172.45 c 0,0 8.94,-5.19 21,-10.89 5.97,-3.01 13.02,-5.59 20.13,-8.15 7.33,-1.93 14.77,-4.18 22.49,-4.43 7.65,-1.08 15.38,-0.2 23.04,0.33 3.7,0.92 7.46,1.33 11.16,1.82 3.67,0.86 7.15,1.68 10.37,2.42 6.73,1.17 12.19,3.32 16.49,4.08 4.21,0.96 6.83,1.33 6.83,1.33 0,0 -1.21,-2.17 -3.83,-5.76 -2.71,-3.36 -6.19,-8.97 -12.38,-13.4 -5.65,-5.2 -13.5,-9.81 -22.75,-13.54 -4.78,-1.27 -9.79,-3.02 -15.06,-3.75 -5.32,-0.17 -10.81,-1.03 -16.29,-0.39 -5.46,0.76 -10.85,1.62 -15.96,3.44 -5.29,1.21 -9.69,4.26 -14.22,6.39 -8.46,5.35 -15.41,11.44 -19.91,17.77 -9.6,12.13 -11.11,22.73 -11.11,22.73"
         style="fill:#ffffff;fill-opacity:1;fill-rule:nonzero;stroke:none"
         transform="matrix(0.13333333,0,0,-0.13333333,0,1404.2933)" />
      <path
         id="path35"
         d="m 4799.5,2666.61 c 0,0 9.29,-7.05 21.89,-15.31 6.47,-3.92 13.72,-8.36 21.72,-11.35 3.79,-1.97 8.17,-2.59 12.18,-3.96 4.18,-0.96 8.4,-1.92 12.8,-1.88 8.58,-1.27 17.46,0.38 26.16,1.37 4.28,1.25 8.55,2.07 12.73,2.93 4.15,1.25 8.04,2.44 11.64,3.48 7.59,1.89 13.63,4.7 18.35,5.84 4.65,1.38 7.52,2.05 7.52,2.05 0,0 -1.42,-2.42 -4.36,-6.39 -3.13,-3.73 -7.08,-9.88 -13.88,-15 -6.29,-5.86 -14.9,-11.15 -25.11,-15.64 -5.36,-1.51 -10.78,-3.93 -16.78,-4.71 -6.06,-0.43 -12.18,-1.58 -18.47,-0.76 -12.51,0.86 -24.7,5.49 -34.1,11.83 -9.7,6.16 -16.56,14.2 -21.34,21.39 -9.67,14.47 -10.95,26.11 -10.95,26.11"
         style="fill:#ffffff;fill-opacity:1;fill-rule:nonzero;stroke:none"
         transform="matrix(0.13333333,0,0,-0.13333333,0,1404.2933)" />
      <path
         id="path36"
         d="m 4489.25,2214.72 c 0,0 8.13,-8.01 20.32,-19.96 5.97,-5.74 12.67,-12.25 20.1,-18.48 3.61,-3.26 7.65,-6.05 11.55,-8.9 3.7,-3.29 8.11,-5.2 12.16,-7.78 4.21,-1.85 8.22,-4.57 12.6,-5.54 4.27,-1.1 8.41,-3.01 12.76,-3.11 4.27,-0.82 8.55,-1 12.72,-0.72 4.21,-0.18 8.31,0.35 12.13,1.11 3.73,0.92 7.69,0.76 10.79,1.88 3.32,0.95 6.15,1.75 8.51,2.4 4.91,1.17 7.98,1.78 7.98,1.78 0,0 -1.66,-2.39 -5.11,-6.31 -3.45,-3.97 -8.46,-9.83 -16.68,-14.24 -3.92,-2.64 -8.43,-5.16 -13.85,-6.41 -5.27,-1.85 -11.04,-3.47 -17.32,-3.22 -6.29,-0.55 -12.7,0.12 -19.11,1.78 -6.48,1.29 -12.32,4.41 -18.35,6.93 -10.97,6.8 -20.96,14.73 -27.81,23.93 -7.31,8.82 -12.39,18.04 -15.82,26.29 -7.12,16.32 -7.57,28.57 -7.57,28.57"
         style="fill:#ffffff;fill-opacity:1;fill-rule:nonzero;stroke:none"
         transform="matrix(0.13333333,0,0,-0.13333333,0,1404.2933)" />
      <path
         id="path37"
         d="m 5194.06,1840.38 c 0,0 8.11,-4.94 20.24,-12.3 5.9,-3.3 12.4,-7.03 19.39,-10.26 7.08,-2.98 14.23,-6.3 21.76,-7.59 7.3,-2.39 14.86,-2.39 22.24,-2.78 3.7,-0.11 7.33,0.51 10.93,0.55 3.65,-0.04 6.97,1.11 10.28,1.37 6.67,0.68 12.21,2.36 16.43,3.01 4.24,0.72 6.89,1.05 6.89,1.05 0,0 -1.31,-2.15 -4.06,-5.62 -2.8,-3.32 -6.63,-8.62 -13.14,-12.66 -3.18,-2.07 -6.41,-5.1 -10.71,-6.49 -4.15,-1.58 -8.49,-4.04 -13.47,-4.74 -4.98,-0.61 -10.18,-2.56 -15.6,-1.8 -5.39,0.18 -10.85,0.49 -16.18,1.9 -10.61,2.63 -20.31,7.71 -28.01,13.77 -7.78,5.99 -13.52,12.96 -17.6,19.33 -8.26,12.79 -9.39,23.26 -9.39,23.26"
         style="fill:#ffffff;fill-opacity:1;fill-rule:nonzero;stroke:none"
         transform="matrix(0.13333333,0,0,-0.13333333,0,1404.2933)" />
      <path
         id="path38"
         d="m 5200.8,3199.45 c 0,0 7.94,-7.82 19.81,-19.52 11.42,-11.3 26.61,-25.13 42.69,-33.69 4.11,-1.46 7.97,-4.37 12.25,-4.92 4.18,-1.21 8.23,-2.62 12.47,-2.64 8.29,-1.09 16.84,-0.64 24.3,0.86 3.68,0.88 7.57,0.77 10.57,1.98 3.25,0.86 6.06,1.62 8.36,2.26 4.81,1.17 7.85,1.72 7.85,1.72 0,0 -1.63,-2.36 -4.95,-6.21 -1.69,-1.95 -3.73,-4.34 -6.32,-6.86 -2.39,-2.85 -6.02,-4.76 -9.79,-7.32 -3.8,-2.48 -8.01,-5.29 -13.3,-6.56 -5.14,-1.72 -10.63,-3.83 -16.81,-3.67 -6.06,-0.61 -12.44,-0.55 -18.77,1.19 -6.5,0.82 -12.15,4 -18.27,6.25 -5.24,3.47 -10.98,6.5 -15.41,10.64 -4.82,3.77 -8.68,8.24 -12.26,12.58 -7.18,8.63 -12.12,17.77 -15.44,25.8 -6.78,16.11 -6.98,28.11 -6.98,28.11"
         style="fill:#ffffff;fill-opacity:1;fill-rule:nonzero;stroke:none"
         transform="matrix(0.13333333,0,0,-0.13333333,0,1404.2933)" />
      <path
         id="path39"
         d="m 4084.54,3034.19 c 0,0 6.7,-5.66 16.75,-14.26 9.54,-7.81 21.46,-17.77 33.24,-21.34 5.71,-2.8 11.84,-2.52 18.09,-2.95 6.25,0.43 12.73,1.27 18.6,2.87 6.07,0.96 11.01,3.14 14.93,3.94 3.86,0.96 6.31,1.41 6.31,1.41 0,0 -0.96,-2.15 -3.03,-5.64 -2.29,-3.32 -5.04,-8.85 -10.65,-13.29 -5.07,-5.09 -12.61,-9.72 -21.91,-12.69 -4.86,-0.63 -9.9,-2.87 -15.29,-1.92 -5.46,0.14 -10.78,1 -15.95,2.86 -5.26,1.56 -9.58,4.68 -14.01,7.22 -4.01,3.05 -7.71,6.39 -10.65,9.92 -6.22,6.88 -9.93,14.44 -12.47,20.98 -4.92,13.13 -3.96,22.89 -3.96,22.89"
         style="fill:#ffffff;fill-opacity:1;fill-rule:nonzero;stroke:none"
         transform="matrix(0.13333333,0,0,-0.13333333,0,1404.2933)" />
      <path
         id="path40"
         d="m 6175.45,3182.61 c 0,0 11.06,-8.71 27.21,-19.12 8.23,-5 17.7,-10.35 28,-14.57 5.24,-1.88 10.6,-3.79 16.06,-4.92 5.42,-1.47 10.99,-2.23 16.58,-2.09 5.56,-1.14 11.1,0.62 16.66,0.7 5.52,1.31 10.97,2.62 16.23,3.85 5.08,2.32 10.25,4.12 15.26,5.94 4.68,2.48 9.21,4.94 13.55,7.05 8.94,3.88 15.31,9.27 20.74,11.89 5.17,2.91 8.42,4.51 8.42,4.51 0,0 -1.5,-3.06 -4.63,-8.3 -3.44,-4.88 -7.17,-13.2 -14.99,-20.33 -3.73,-3.75 -7.68,-8.01 -12.47,-11.91 -5.11,-3.52 -10.62,-7.33 -16.59,-10.73 -6.42,-2.65 -13.21,-5.72 -20.42,-7.54 -7.46,-0.72 -15.06,-3.02 -22.77,-2.07 -7.82,0.26 -15.36,1.7 -22.56,3.97 -7.28,1.74 -13.63,5.7 -19.75,8.87 -11.86,7.16 -21.02,16.01 -27.69,24.27 -13.36,16.62 -16.84,30.53 -16.84,30.53"
         style="fill:#ffffff;fill-opacity:1;fill-rule:nonzero;stroke:none"
         transform="matrix(0.13333333,0,0,-0.13333333,0,1404.2933)" />
      <path
         id="path41"
         d="m 5784.23,3931.26 c 0,0 2.52,-2.5 7.68,-6.58 5.14,-4.04 13.19,-9.51 24,-14.77 10.75,-5.09 25.13,-9.62 40.83,-7.4 15.8,2.11 30.95,12.85 43.48,28.01 2.88,3.93 5.84,7.91 8.84,11.99 2.68,4.83 5.39,9.71 8.21,14.65 5.54,9.96 11.31,20.25 17.22,30.78 11.87,21.15 24.18,43.52 37.61,66.23 25.26,46.1 52.26,95.28 79.25,144.46 27.53,49 55.06,98 80.84,143.94 13.24,22.81 25.99,44.92 38.08,65.82 6.1,10.47 12.03,20.65 17.75,30.47 5.57,9.92 11,19.49 16.17,28.67 21.47,37.13 46.22,64.67 68.17,77.76 10.76,7.07 21.38,7.85 27.88,8.28 6.58,-1.17 10.09,-1.82 10.09,-1.82 0,0 -3.47,0.14 -10.06,0.35 -6.34,-1.31 -15.59,-3.67 -25.04,-11.25 -19.52,-14.1 -39.04,-43.59 -57.67,-80.49 -8.4,-18.37 -19.46,-40.11 -29.92,-61.32 -10.76,-21.7 -22.18,-44.54 -34.55,-67.82 -24.48,-46.83 -50.71,-96.5 -78.27,-145.9 -27.94,-49.1 -55.44,-98.51 -82.69,-143.78 -13.87,-22.47 -27.91,-43.73 -41.09,-64.03 -6.57,-10.13 -12.98,-20 -19.16,-29.57 -3.1,-4.74 -6.17,-9.43 -9.14,-14.04 -3.79,-4.53 -7.53,-8.99 -11.16,-13.36 -14.96,-16.52 -35.03,-27.66 -53.88,-27.99 -18.79,-0.51 -33.63,6.33 -44.31,12.77 -10.79,6.57 -17.8,13.6 -22.46,18.29 -4.56,4.84 -6.7,7.65 -6.7,7.65"
         style="fill:#ffffff;fill-opacity:1;fill-rule:nonzero;stroke:none"
         transform="matrix(0.13333333,0,0,-0.13333333,0,1404.2933)" />
      <path
         id="path42"
         d="m 6688.02,3890.77 c 0,0 12.69,-9.8 38.19,-18.06 12.63,-4.08 28.97,-6.88 46.76,-4.2 17.77,2.62 36.31,11.8 52.1,27.09 4.31,3.3 7.63,8.06 11.36,12.44 3.79,4.3 7.43,8.87 10.43,14.18 3.06,5.06 6.86,10.41 9.41,15.35 2.84,5.84 5.64,11.84 8.55,17.83 11.64,24.09 23.93,49.42 36.65,75.69 13.15,26.01 26.32,53.1 38.61,80.95 12.63,27.74 25.49,55.86 38.35,84.01 26.54,55.8 51.9,112.52 76.49,165.31 24.38,52.83 48.72,101.74 67.61,144 19.24,43.4 46.29,76.1 72.7,87.45 6.35,3.22 12.9,3.65 18.19,4.6 5.49,-0.6 10.12,-0.42 13.65,-1.54 6.95,-2.36 10.65,-3.63 10.65,-3.63 0,0 -3.79,0.76 -10.9,2.21 -3.52,0.6 -8.01,-0.2 -13.09,-0.26 -4.84,-1.7 -10.64,-2.56 -16.23,-6.13 -23.45,-12.38 -44.79,-46.15 -60.9,-88.46 -8.17,-22.15 -17.9,-45.23 -27.73,-70.19 -9.98,-24.83 -20.67,-50.92 -32.19,-77.64 -22.55,-53.79 -47.6,-110.7 -73.97,-167.44 -13.25,-28.22 -26.49,-56.49 -39.57,-84.28 -12.53,-28.14 -27.05,-54.51 -40.8,-80.14 -13.97,-25.58 -27.47,-50.35 -40.26,-73.75 -3.22,-5.84 -6.42,-11.58 -9.54,-17.3 -3.79,-6.31 -7.81,-11.15 -11.58,-16.64 -3.58,-5.49 -7.91,-10.31 -12.38,-14.88 -4.43,-4.59 -8.36,-9.48 -13.49,-13.07 -18.47,-16.37 -41.18,-24.88 -61.13,-25.72 -20.03,-1.02 -36.87,3.77 -49.55,9.26 -12.82,5.39 -21.75,11.68 -27.68,15.87 -5.87,4.42 -8.71,7.09 -8.71,7.09"
         style="fill:#ffffff;fill-opacity:1;fill-rule:nonzero;stroke:none"
         transform="matrix(0.13333333,0,0,-0.13333333,0,1404.2933)" />
      <path
         id="path43"
         d="m 7497.41,4056.03 c 0,0 8.97,-9.51 28.78,-17.99 9.83,-4.12 22.58,-7.4 36.91,-6.17 14.29,1.25 29.66,6.99 44.12,17.3 6.95,5.51 14.42,11.04 20.8,18.4 3.15,3.56 7.23,7.03 9.69,10.72 3.2,4.14 6.45,8.4 9.7,12.68 13.85,16.87 25.72,35.76 38.25,54.77 12.67,19.04 24.13,40.54 36.5,61.48 11.49,21.58 23.7,43.22 34.23,65.78 11.52,22.03 21.7,44.73 31.97,66.95 9.47,22.52 19.69,44.38 27.56,66.12 16.18,43.57 30.54,85.64 46.55,120.35 15.47,34.94 35.28,61.74 53.75,75.14 9.51,6.44 18.16,9.21 24.02,10.11 5.91,0.51 9.07,0.8 9.07,0.8 0,0 -3.04,-0.78 -8.71,-2.24 -5.58,-1.66 -12.98,-5.96 -21.06,-12.76 -7.72,-7.36 -15.63,-17.71 -22.87,-30.76 -6.99,-13.2 -13.53,-28.81 -20.2,-46.13 -6.54,-17.31 -12.51,-36.64 -18.53,-57.23 -6.16,-20.64 -11.61,-42.58 -19.62,-65.17 -7.5,-22.76 -16.41,-45.63 -26.06,-68.62 -10.18,-22.79 -20.27,-46.01 -31.75,-68.59 -11.01,-22.77 -23.73,-44.77 -35.72,-66.62 -12.84,-21.51 -25.59,-42.31 -39.57,-62.01 -13.84,-19.94 -28.01,-38.38 -42.75,-53.89 -3.6,-4.04 -7.11,-8.03 -10.59,-11.95 -3.86,-4.67 -8,-7.64 -11.9,-11.43 -7.53,-7.4 -16.37,-13.1 -24.56,-18.59 -16.88,-10.73 -35.86,-15.3 -52.1,-14.59 -16.4,0.58 -29.7,5.9 -39.43,11.48 -9.89,5.55 -16.3,11.72 -20.51,15.82 -4.12,4.32 -5.97,6.84 -5.97,6.84"
         style="fill:#ffffff;fill-opacity:1;fill-rule:nonzero;stroke:none"
         transform="matrix(0.13333333,0,0,-0.13333333,0,1404.2933)" />
      <path
         id="path44"
         d="m 6957.81,3304 c 0,0 10.88,-7.37 26.9,-13.95 8,-3.22 17.26,-6.31 27.21,-7.62 4.88,-1.25 10.11,-0.74 15.22,-1.34 5.16,0.13 10.46,0.25 15.66,1.19 5.24,1.07 10.63,1.11 15.74,3.14 5.06,1.82 10.52,2.31 15.31,4.69 4.81,2.21 9.95,3.36 14.51,5.49 4.43,2.24 8.91,4.12 13.09,5.84 8.32,3.46 14.92,7.38 20.15,9.37 5.08,2.21 8.2,3.3 8.2,3.3 0,0 -1.56,-2.77 -4.75,-7.38 -3.35,-4.43 -7.63,-11.5 -14.74,-17.95 -6.86,-6.83 -15.51,-14.29 -26.51,-20.23 -5.21,-3.38 -11.36,-5.84 -17.61,-8.03 -6.13,-2.7 -13.11,-3.46 -19.81,-4.98 -13.72,-1.41 -28.11,-0.76 -40.39,3.93 -12.42,3.94 -22.52,10.84 -29.77,17.69 -14.83,13.73 -18.41,26.84 -18.41,26.84"
         style="fill:#ffffff;fill-opacity:1;fill-rule:nonzero;stroke:none"
         transform="matrix(0.13333333,0,0,-0.13333333,0,1404.2933)" />
      <path
         id="path45"
         d="m 5622.35,2369.86 c 0,0 8.29,-6.31 19.82,-12.5 5.74,-3.13 12.38,-6 19.29,-7.87 3.35,-1.31 7.09,-1.39 10.63,-2.15 3.57,-0.53 7.3,-0.57 11.01,-0.45 3.77,0.45 7.56,-0.12 11.39,1.03 3.73,1.06 7.72,0.76 11.45,2.27 7.6,1.68 14.83,4.2 21.47,6.11 6.57,1.9 12.06,4.16 16.3,5.18 4.18,1.11 6.8,1.62 6.8,1.62 0,0 -1.15,-2.23 -3.55,-5.94 -2.58,-3.5 -5.9,-9.06 -11.48,-14.06 -5.42,-5.26 -12.32,-10.98 -21.24,-15.16 -4.22,-2.42 -9.22,-4.14 -14.33,-5.51 -4.98,-1.73 -10.72,-1.75 -16.21,-2.5 -11.1,0.26 -22.68,2.25 -31.68,7.8 -4.78,2.07 -8.42,5.74 -12.02,8.57 -3.32,3.26 -6.22,6.41 -8.36,9.81 -9.12,12.91 -9.29,23.75 -9.29,23.75"
         style="fill:#ffffff;fill-opacity:1;fill-rule:nonzero;stroke:none"
         transform="matrix(0.13333333,0,0,-0.13333333,0,1404.2933)" />
      <path
         id="path46"
         d="m 6468.82,2551.97 c 0,0 7.08,-4.75 17.64,-11.94 10.11,-6.48 22.52,-13.01 33.98,-13.46 2.87,-0.7 5.9,0 8.87,-0.13 2.96,1.05 6.18,0.66 9.24,1.7 3,1.21 6.23,1.76 9.32,2.67 2.9,1.37 5.87,2.43 8.71,3.38 5.74,1.92 10.37,4.53 14.13,5.65 3.7,1.34 6.03,1.97 6.03,1.97 0,0 -0.67,-2.17 -2.3,-5.82 -1.81,-3.42 -3.85,-9.06 -8.48,-14.1 -4.14,-5.53 -10.18,-11.17 -18.31,-15.71 -4.02,-2.16 -8.84,-3.98 -13.66,-5.39 -5.06,-0.5 -10.4,-1.75 -15.73,-1.09 -5.42,0.53 -10.58,1.8 -15.37,3.81 -4.94,1.58 -8.84,4.9 -12.69,7.5 -7.35,5.86 -12.19,12.71 -15.39,18.89 -6.37,12.4 -5.99,22.07 -5.99,22.07"
         style="fill:#ffffff;fill-opacity:1;fill-rule:nonzero;stroke:none"
         transform="matrix(0.13333333,0,0,-0.13333333,0,1404.2933)" />
      <path
         id="path47"
         d="m 4846.72,1361.5 c 0,0 7.3,-4.85 15.98,-12.09 4.43,-3.62 9.35,-7.62 14.29,-11.84 5.2,-3.79 10.02,-8.55 15.31,-11.48 4.92,-3.83 9.99,-6 14.81,-8.01 2.45,-0.35 4.88,-2.03 7.4,-2.01 2.45,-0.16 5.07,-1.16 7.53,-0.8 5.04,-0.22 9.8,0.15 13.23,0.8 3.55,0.35 5.88,0.45 5.88,0.45 0,0 -0.9,-1.88 -3.01,-5 -2.04,-3.3 -5.51,-7.58 -11.48,-11.08 -5.64,-3.81 -14.23,-6.29 -23.45,-5.8 -9.19,0.37 -18.46,4.1 -25.96,9.08 -15.06,10.43 -23.65,25.37 -27.35,37.13 -3.98,11.74 -3.18,20.65 -3.18,20.65"
         style="fill:#ffffff;fill-opacity:1;fill-rule:nonzero;stroke:none"
         transform="matrix(0.13333333,0,0,-0.13333333,0,1404.2933)" />
      <path
         id="path48"
         d="m 3587.7,3735.66 c 0,0 9.62,-18.15 26.44,-49.92 16.62,-31.84 40.42,-77.33 66.61,-133.13 26.26,-55.7 58.04,-120.27 90.13,-190.33 30.21,-70.86 62.43,-146.41 94.65,-222.01 15.53,-38.03 31.07,-76.08 46.35,-113.5 7.63,-18.73 15.22,-37.3 22.72,-55.64 7.12,-18.5 13.4,-37.07 20,-55.16 26.13,-72.52 48.5,-140.94 68.65,-199.14 20.14,-58.24 35.29,-107.34 46.61,-141.39 10.78,-34.26 16.95,-53.85 16.95,-53.85 0,0 -7.98,18.95 -21.93,52.13 -13.4,33.4 -33.59,80.65 -55.89,137.97 -22.19,57.37 -49.31,123.81 -76.21,195.78 -6.82,17.93 -13.4,36.35 -20.77,54.69 -7.75,18.22 -15.56,36.62 -23.47,55.2 -15.8,37.16 -31.84,74.9 -47.9,112.61 -31.03,75.92 -62.08,151.82 -91.17,222.97 -31.07,70.28 -58.22,136.76 -82.47,193.32 -47.57,113.64 -79.3,189.4 -79.3,189.4"
         style="fill:#ffffff;fill-opacity:1;fill-rule:nonzero;stroke:none"
         transform="matrix(0.13333333,0,0,-0.13333333,0,1404.2933)" />
      <path
         id="path49"
         d="m 3261.68,5050.87 c 0,0 168.64,60.74 276.53,-64.06 0,0 -74.17,158.51 -276.53,64.06"
         style="fill:#ffffff;fill-opacity:1;fill-rule:nonzero;stroke:none"
         transform="matrix(0.13333333,0,0,-0.13333333,0,1404.2933)" />
      <path
         id="path50"
         d="m 4178.96,5216.13 c 0,0 8.78,2.22 24.52,3.32 15.66,0.72 38.56,1.38 65.58,-4.16 26.86,-5.3 58.25,-16.64 86.61,-37.95 14.05,-10.71 27.47,-23.36 38.76,-38.23 11.02,-14.9 20.97,-31.13 28.15,-48.43 1.94,-4.73 3.63,-7.62 5.74,-13.85 l 3.6,-12.81 c 2.43,-8.52 4.82,-17.05 7.18,-25.47 5.9,-16.17 6.73,-34.96 8.71,-52.39 2.93,-17.48 1.34,-34.19 0.13,-49.96 -0.13,-15.82 -4.21,-30.39 -7.28,-43.73 -2.26,-13.53 -8.16,-24.98 -11.99,-35.31 -3.77,-10.41 -9.41,-18.51 -12.79,-25.53 -8.2,-13.59 -14.33,-20.19 -14.33,-20.19 0,0 4.18,8.01 9.57,22.46 2.14,7.46 6.17,15.92 8.04,26.5 1.86,10.61 5.56,21.94 6.29,35.04 1.24,12.99 3.44,26.8 2.36,41.66 -0.19,14.85 -0.19,30.37 -3.54,45.84 -2.46,15.65 -4.06,31.43 -10.21,48.4 -2.52,8.36 -5.04,16.82 -7.6,25.27 l -3.85,12.76 -4.79,10.62 c -6.16,15.71 -14.73,30.16 -24.19,43.48 -9.85,13.12 -20.56,25.23 -32.66,35.29 -24.02,20.3 -51.33,33.36 -75.83,41.6 -24.63,8.11 -46.39,12.31 -61.8,13.85 -15.34,1.78 -24.38,1.92 -24.38,1.92"
         style="fill:#ffffff;fill-opacity:1;fill-rule:nonzero;stroke:none"
         transform="matrix(0.13333333,0,0,-0.13333333,0,1404.2933)" />
      <path
         id="path51"
         d="m 5201.95,5286.97 c 0,0 8.07,-3.62 20.29,-13.17 11.93,-9.69 28.71,-24.8 43.61,-47.34 15.09,-22.33 28.26,-51.82 35.03,-85.12 3.13,-16.66 5.67,-34.06 5.74,-51.87 0.57,-8.93 -0.07,-17.8 -0.58,-26.76 l -0.73,-13.48 c -0.51,-5.95 -1.3,-9.02 -1.91,-13.67 -5.87,-34.28 -11.61,-68.54 -17.99,-100.49 -3.8,-16.01 -9.39,-31.33 -13.82,-45.82 -4.78,-14.39 -9.29,-28.01 -13.46,-40.58 -4.21,-12.5 -10.11,-23.23 -14.46,-32.95 -4.53,-9.63 -8.48,-18.07 -11.74,-24.99 -7.23,-13.55 -11.99,-20.85 -11.99,-20.85 0,0 2.58,8.32 7.15,22.87 2.01,7.34 4.39,16.23 7.15,26.44 2.55,10.28 6.35,21.55 9.12,34.14 4.91,25.39 11.89,54.3 18.59,85.57 4.12,32.34 9.51,66.64 14.84,100.99 0.61,3.89 1.76,9.32 1.91,12 l 0.9,12.5 c 0.6,8.3 1.4,16.6 0.99,24.82 0.05,16.41 -0.84,32.54 -3.07,47.99 -4.37,30.94 -13.78,58.85 -25.01,81.47 -5.65,11.3 -11.48,21.42 -17.35,29.94 -5.71,8.71 -11.55,15.74 -16.53,21.38 -9.92,11.33 -16.68,16.98 -16.68,16.98"
         style="fill:#ffffff;fill-opacity:1;fill-rule:nonzero;stroke:none"
         transform="matrix(0.13333333,0,0,-0.13333333,0,1404.2933)" />
      <path
         id="path52"
         d="m 6381.15,5290.33 c 0,0 -2.16,-0.79 -5.71,-3.09 -3.76,-1.99 -8.74,-5.57 -14.89,-10.33 -6.55,-4.14 -12.74,-11.6 -20.49,-18.73 -3.28,-4.24 -6.76,-8.73 -10.46,-13.5 -3.86,-4.49 -7.5,-9.53 -10.56,-15.41 -3.29,-5.62 -6.71,-11.42 -10.27,-17.46 -3.04,-6.31 -5.63,-13.16 -8.56,-20 -6.63,-13.34 -9.95,-28.91 -14.32,-44.59 -5.07,-15.25 -6.73,-32.58 -10.53,-50.06 -3.66,-17.46 -5.9,-34.94 -8.96,-52.58 -3.35,-17.79 -6.7,-35.6 -9.99,-53.12 -4.3,-17.6 -7.49,-34.96 -13.56,-51.35 -5.32,-16.5 -10.58,-32.36 -18.18,-46.46 -6.76,-14.42 -13.15,-27.93 -21.51,-39.11 -7.71,-11.46 -14.57,-22.07 -21.56,-30.7 -7.5,-8.22 -14,-15.39 -19.36,-21.31 -10.78,-11.74 -17.16,-18.04 -17.16,-18.04 0,0 4.59,7.91 12.98,21.24 4.2,6.61 9.34,14.61 15.25,23.79 5.29,9.52 10.08,20.84 16.3,32.54 6.64,11.49 11.1,25.22 16.46,39.32 6,13.81 9.51,29.43 13.94,45.29 5.14,15.57 6.7,32.99 10.85,49.83 2.97,17.36 5.96,35.04 8.96,52.67 3.38,17.83 6.13,36.06 10.05,53.28 3.83,17.13 7.06,34.56 13.22,51.21 5.32,16.7 10.58,32.72 18.97,46.67 3.86,7.05 7.08,14.16 11.2,20.54 4.59,6 9.03,11.84 13.3,17.46 7.66,11.74 18.89,19.18 26.67,27.15 9.54,6.27 16.97,12.62 24.5,15.84 7.02,3.95 13.02,6.06 17.17,7.27 3.99,1.46 6.25,1.74 6.25,1.74"
         style="fill:#ffffff;fill-opacity:1;fill-rule:nonzero;stroke:none"
         transform="matrix(0.13333333,0,0,-0.13333333,0,1404.2933)" />
      <path
         id="path53"
         d="m 7322.04,5243.12 c 0,0 -2.29,0.41 -6.5,0.04 -4.11,0.11 -10.25,-1.56 -17.61,-3.38 -7.37,-2.42 -15.99,-5.74 -25.02,-11.6 -9.6,-4.48 -18.14,-13.85 -28.74,-21.1 -8.94,-9.84 -19.74,-18.9 -29.16,-30.78 -8.84,-12.21 -20.32,-23.87 -28.43,-37.64 -8.8,-14.29 -19.75,-28.76 -27.4,-44 -8.19,-15.27 -17.32,-29.82 -24.88,-46.29 -16.59,-31.58 -31.78,-64.24 -47.38,-94.39 -15.08,-30.37 -30.9,-58.17 -45.1,-81.51 -7.66,-11.48 -15,-21.69 -21.51,-30.72 -6.03,-9.28 -13.37,-16.11 -18.43,-22.17 -10.76,-11.87 -17.08,-18.26 -17.08,-18.26 0,0 4.56,8.05 12.86,21.41 3.99,6.79 9.8,14.26 14.19,24.41 4.79,9.88 10.15,21 16.37,32.76 10.95,24.62 23.9,53.12 37.23,84.2 13.47,31.03 28.4,64.02 44.86,96.66 7.84,16.23 18.12,32.28 27.05,48.1 8.62,16.43 20.2,29.14 29.77,43.26 9.79,15.12 22.74,25.84 33.24,37.87 10.81,11.68 23.8,20.3 34.3,29.22 12.4,6.94 22.61,14.75 33.87,17.95 10.5,4.55 20.29,6.52 28.36,7.74 8.11,0.8 14.53,0.66 18.79,-0.3 4.28,-0.6 6.35,-1.48 6.35,-1.48"
         style="fill:#ffffff;fill-opacity:1;fill-rule:nonzero;stroke:none"
         transform="matrix(0.13333333,0,0,-0.13333333,0,1404.2933)" />
      <path
         id="path54"
         d="m 8117.91,5091.38 c 0,0 -8.2,-2.23 -20.07,-9.82 -6.25,-3.27 -13.07,-8.42 -20.35,-14.93 -7.88,-5.72 -14.61,-14.7 -22.84,-23.16 -8.71,-8.05 -14.65,-20.2 -23.01,-30.76 -8.7,-10.43 -13.68,-24.59 -21.46,-37.19 -7.98,-12.62 -12.99,-27.44 -19.24,-41.93 -6.15,-14.81 -12.44,-29.85 -18.76,-44.89 -6.48,-15.05 -12.95,-30.13 -19.33,-44.94 -7.57,-14.78 -15.73,-28.96 -23.23,-42.79 -7.56,-13.81 -16.91,-25.8 -24.76,-37.77 -7.61,-12.09 -17.32,-21.94 -25.07,-31.68 -7.59,-9.93 -16.53,-17.41 -23.61,-24.63 -7.02,-7.27 -14.35,-12.5 -19.72,-17.31 -11.38,-9.06 -18.69,-13.02 -18.69,-13.02 0,0 5.87,5.87 15.06,16.81 4.38,5.69 10.37,11.88 15.86,20.2 5.51,8.32 12.53,16.87 18.79,27.34 6.18,10.49 14.1,20.92 20.48,33.3 6.47,12.25 14.16,24.69 20.83,38.15 6.54,13.49 12.85,27.57 20.07,41.52 6.09,14.92 12.27,30.08 18.46,45.23 6.64,15.08 13.31,30.18 19.85,45.04 6.67,15.1 13.3,29.91 22.4,43.03 8.87,13.18 15.53,26.93 25.94,37.5 9.95,10.68 17.66,22.13 28.26,29.69 9.82,8.1 18.44,15.9 27.98,20.43 8.77,5.35 16.8,9.27 23.89,11.48 6.66,3.07 12.66,3.6 16.4,4.44 3.8,0.7 5.87,0.66 5.87,0.66"
         style="fill:#ffffff;fill-opacity:1;fill-rule:nonzero;stroke:none"
         transform="matrix(0.13333333,0,0,-0.13333333,0,1404.2933)" />
    </g>
  </g>
</svg>
