<svg version="1.2" xmlns="http://www.w3.org/2000/svg" viewBox="0 0 640 480" width="640" height="480"><defs><linearGradient id="P" gradientUnits="userSpaceOnUse"/><radialGradient id="g1" cx="0" cy="0" r="1" href="#P" gradientTransform="matrix(489.6,0,0,489.6,320,240)"><stop stop-color="#44739f"/><stop offset="1" stop-color="#0c3855"/></radialGradient><clipPath clipPathUnits="userSpaceOnUse" id="cp1"><path d="m513.03 394.45l5.28 3.62-103.79 42.09c-57.17 23.18-134.69 23.06-191.39-0.28l-101.62-41.82 5.28-3.61zm-284.33 40.27c53.65 21.36 126.24 21.46 180.32 0.25l93.6-36.72h-365.54z"/></clipPath><linearGradient id="g2" x2="1" href="#P" gradientTransform="matrix(652.8,0,0,489.6,-6.4,240)"><stop stop-opacity="0"/><stop offset=".78" stop-opacity="0"/><stop offset="1" stop-opacity="1"/></linearGradient><radialGradient id="g3" cx="0" cy="0" r="1" href="#P" gradientTransform="matrix(368,0,0,368,320,240)"><stop stop-opacity="0"/><stop offset="1" stop-opacity=".5"/></radialGradient></defs><style>.a{fill:#deaa87}.b{fill:#d38d5f}.c{fill:#800000}.d{fill:#fff}</style><rect width="640" height="480" style="fill:url(#g1)"/><path fill-rule="evenodd" class="a" d="m118.9 401.9l-83.9 78.1h-38l95.1-78.1z"/><path fill-rule="evenodd" class="b" d="m145.7 401.9l-72.7 78.1h-38l83.9-78.1z"/><path fill-rule="evenodd" class="a" d="m172.5 401.9l-61.5 78.1h-38l72.7-78.1z"/><path fill-rule="evenodd" class="b" d="m199.3 401.9l-50.3 78.1h-38l61.5-78.1z"/><path fill-rule="evenodd" class="a" d="m226.2 401.9l-39.2 78.1h-38l50.3-78.1z"/><path fill-rule="evenodd" class="b" d="m253 401.9l-28 78.1h-38l39.2-78.1z"/><path fill-rule="evenodd" class="a" d="m279.8 401.9l-16.8 78.1h-38l28-78.1z"/><path fill-rule="evenodd" class="b" d="m306.6 401.9l-5.6 78.1h-38l16.8-78.1z"/><path fill-rule="evenodd" class="a" d="m333.4 401.9l5.6 78.1h-38l5.6-78.1z"/><path fill-rule="evenodd" class="b" d="m360.2 401.9l16.8 78.1h-38l-5.6-78.1z"/><path fill-rule="evenodd" class="a" d="m387 401.9l28 78.1h-38l-16.8-78.1z"/><path fill-rule="evenodd" class="b" d="m413.8 401.9l39.2 78.1h-38l-28-78.1z"/><path fill-rule="evenodd" class="a" d="m440.7 401.9l50.3 78.1h-38l-39.2-78.1z"/><path class="b" d="m439.3 401.9h28.2l61.5 78.1h-38z"/><path fill-rule="evenodd" class="a" d="m494.3 401.9l72.7 78.1h-38l-61.5-78.1z"/><path fill-rule="evenodd" class="b" d="m521.1 401.9l83.9 78.1h-38l-72.7-78.1z"/><path fill-rule="evenodd" class="a" d="m547.9 401.9l95.1 78.1h-38l-83.9-78.1z"/><g clip-path="url(#cp1)"><path fill-rule="evenodd" class="c" d="m548 402l95 78h-646l95-78z"/></g><path class="d" d="m254 402h-1.5l-1.5 4.2h3l1.3-3.7zm130.9 0.9l1.5 4.3h3l-1.5-4.3zm-134.3 4.4l-1.7 4.6h3.2l1.6-4.6zm136.1 1l1.6 4.7h3.2l-1.7-4.7zm-138.2 4.8l-1.8 4.8h3.3l1.6-4.8zm140.3 1l1.7 4.9h3.2l-1.7-4.9zm-142.5 5.1l-1.3 3.6c-0.1 0.4 0.5 0.7 1.4 0.7h3.9l0.4-1.3h-2.1l1-3zm144.5 1.1l0.7 1.9h-5.1l0.4 1.3h6.8c0.9 0 1.6-0.3 1.4-0.7l-0.9-2.5zm-136.8 1.9l-0.4 1.3h13.3l0.3-1.3zm16.6 0l-0.3 1.3h13.3l0.2-1.3zm16.6 0l-0.3 1.3h13.4l0.1-1.3zm16.5 0l-0.1 1.3h13.4v-1.3zm16.5 0v1.3h13.3v-1.3zm16.5 0l0.1 1.3h13.3l-0.2-1.3zm16.6 0l0.2 1.3h13.3l-0.3-1.3zm16.6 0l0.3 1.3h13.3l-0.4-1.3z"/><path fill-rule="evenodd" class="c" d="m386 402l7.4 20.8h-146.7l7.3-20.8z"/><rect width="640" height="480" style="fill:url(#g2)"/><rect width="640" height="480" style="fill:url(#g3)"/></svg>